<?xml version="1.0" standalone="no"?>
<!DOCTYPE svg PUBLIC "-//W3C//DTD SVG 20010904//EN"
 "http://www.w3.org/TR/2001/REC-SVG-20010904/DTD/svg10.dtd">
<svg version="1.0" xmlns="http://www.w3.org/2000/svg"
 width="1429.000000pt" height="803.000000pt" viewBox="0 0 1429.000000 803.000000"
 preserveAspectRatio="xMidYMid meet">

<g transform="translate(0.000000,803.000000) scale(0.100000,-0.100000)"
fill="#000000" stroke="none">
<path d="M0 4015 l0 -4015 7145 0 7145 0 0 4015 0 4015 -7145 0 -7145 0 0
-4015z m10633 3908 c-1910 -2 -5036 -2 -6945 0 -1910 1 -348 2 3472 2 3820 0
5382 -1 3473 -2z m-10516 -270 c-2 -32 -3 -6 -3 57 0 63 1 89 3 58 2 -32 2
-84 0 -115z m873 28 l0 -98 -55 -1 c-66 0 -85 14 -85 67 0 48 27 75 70 69 28
-4 30 -3 30 29 0 26 4 33 20 33 19 0 20 -7 20 -99z m680 0 l0 -99 -60 -1 c-53
0 -62 3 -76 24 -34 53 5 123 62 112 21 -4 24 -1 24 29 0 30 3 34 25 34 25 0
25 0 25 -99z m468 82 c5 -17 -26 -29 -40 -15 -6 6 -7 15 -3 22 9 14 37 9 43
-7z m-1638 -8 c0 -10 -10 -15 -30 -15 -25 0 -30 -4 -30 -25 0 -21 5 -25 30
-25 20 0 30 -5 30 -15 0 -10 -10 -15 -30 -15 -28 0 -30 -2 -30 -40 0 -36 -2
-40 -25 -40 -25 0 -25 0 -25 95 l0 95 55 0 c42 0 55 -3 55 -15z m724 -1 c38
-38 5 -104 -51 -104 -20 0 -23 -5 -23 -35 0 -31 -3 -35 -25 -35 -25 0 -25 0
-25 95 l0 95 54 0 c36 0 60 -5 70 -16z m1579 -21 l15 -38 18 38 c13 27 24 37
41 37 l23 0 -30 -60 c-16 -33 -30 -75 -30 -95 0 -31 -3 -35 -25 -35 -22 0 -25
4 -25 35 0 19 -11 60 -25 91 -14 31 -25 58 -25 60 0 2 11 4 24 4 18 0 27 -9
39 -37z m663 12 c15 -23 15 -27 1 -49 -14 -21 -14 -25 -2 -30 21 -8 19 -50 -4
-70 -13 -12 -32 -16 -58 -14 -31 2 -39 7 -41 26 -3 20 -1 21 22 11 20 -9 29
-9 41 1 19 16 3 40 -26 40 -27 0 -24 28 4 32 14 2 22 10 22 23 0 16 -6 20 -32
19 -20 -1 -33 3 -33 10 0 20 11 26 51 26 30 0 42 -6 55 -25z m156 8 c28 -25
22 -49 -23 -98 l-42 -45 42 0 c30 0 41 -4 41 -15 0 -12 -14 -15 -65 -15 -60 0
-65 2 -65 22 0 12 17 37 40 58 41 38 51 66 26 76 -8 3 -24 1 -35 -6 -18 -9
-21 -8 -21 9 0 11 6 22 13 24 26 11 71 6 89 -10z m-1582 -13 c0 -11 7 -20 15
-20 8 0 15 -7 15 -15 0 -8 -7 -15 -15 -15 -11 0 -15 -11 -15 -35 0 -22 6 -38
15 -41 22 -9 18 -34 -4 -34 -42 0 -51 11 -51 60 l0 48 -42 -3 c-24 -1 -46 -3
-50 -4 -5 0 -8 -14 -8 -30 0 -32 20 -45 52 -35 15 5 19 2 16 -13 -5 -29 -70
-30 -97 -2 -27 29 -27 59 0 93 17 22 29 27 58 26 60 -3 71 -1 71 14 0 13 13
23 33 25 4 1 7 -8 7 -19z m-1396 -36 c46 -46 19 -116 -47 -122 -67 -6 -104 71
-57 118 24 24 82 27 104 4z m164 0 c16 -11 22 -25 22 -54 0 -46 -26 -70 -76
-70 -35 0 -74 37 -74 70 0 10 9 29 21 44 24 30 72 35 107 10z m542 -4 c0 -10
-9 -20 -20 -23 -16 -4 -20 -14 -20 -51 0 -42 -2 -46 -25 -46 -24 0 -25 2 -25
70 l0 69 45 -1 c36 0 45 -4 45 -18z m134 4 c46 -46 19 -116 -47 -122 -67 -6
-104 71 -57 118 24 24 82 27 104 4z m258 -36 c2 -39 7 -53 18 -53 11 0 16 14
18 53 3 48 5 52 28 52 23 0 24 -2 24 -70 l0 -70 -57 3 c-50 2 -59 5 -70 27 -7
14 -13 44 -13 68 0 38 2 42 24 42 23 0 25 -4 28 -52z m398 -18 c0 -68 -1 -70
-25 -70 -24 0 -25 2 -25 70 0 68 1 70 25 70 24 0 25 -2 25 -70z m150 50 c45
-45 11 -120 -55 -120 -66 0 -98 69 -53 117 27 29 80 31 108 3z m170 -6 c6 -14
10 -45 10 -70 0 -40 -2 -44 -24 -44 -23 0 -25 4 -28 53 -2 38 -7 52 -18 52
-11 0 -16 -14 -18 -52 -3 -49 -5 -53 -28 -53 -23 0 -24 2 -24 69 l0 69 60 1
c56 0 62 -2 70 -25z m533 14 c9 -7 19 -25 23 -40 6 -28 5 -28 -41 -28 -33 0
-45 -4 -42 -12 2 -7 18 -13 35 -13 24 0 32 -4 32 -17 0 -27 -73 -25 -100 2
-57 57 28 157 93 108z m141 -4 c11 -10 16 -34 16 -69 l0 -53 -57 1 c-56 2 -58
3 -61 32 -4 33 18 55 56 55 14 0 21 4 16 11 -3 6 -19 9 -35 5 -28 -5 -40 10
-22 27 12 13 72 7 87 -9z m136 -4 c0 -10 -9 -20 -20 -23 -16 -4 -20 -14 -20
-51 0 -42 -2 -46 -25 -46 -24 0 -25 2 -25 70 l0 69 45 -1 c36 0 45 -4 45 -18z
m-620 -45 c0 -11 -11 -15 -40 -15 -29 0 -40 4 -40 15 0 11 11 15 40 15 29 0
40 -4 40 -15z m4515 -2120 l0 -1840 -3360 0 -3360 0 0 1840 0 1840 3360 0
3360 0 0 -1840z m3478 1828 l-3253 -3 -3 -1828 -2 -1827 -3 1833 -2 1832 3258
-2 3257 -3 -3252 -2z m-3123 -62 c-47 -8 -55 -41 -11 -41 17 0 31 -4 31 -10 0
-5 -13 -10 -30 -10 -27 0 -30 -3 -30 -30 0 -16 -4 -30 -10 -30 -6 0 -10 28
-10 65 l0 65 48 -1 c44 -2 45 -2 12 -8z m320 -57 l0 -65 -32 3 c-30 3 -33 6
-36 42 -3 40 11 60 36 51 7 -2 12 4 12 15 0 11 5 20 10 20 6 0 10 -29 10 -66z
m440 0 l0 -65 -37 3 c-35 3 -38 6 -41 36 -4 40 14 65 39 57 14 -5 19 -1 19 14
0 12 5 21 10 21 6 0 10 -29 10 -66z m600 45 c0 -11 4 -18 9 -15 16 10 39 -5
45 -30 10 -37 -10 -64 -44 -64 l-30 0 0 65 c0 37 4 65 10 65 6 0 10 -9 10 -21z
m250 -89 c6 0 10 -4 10 -10 0 -5 -7 -10 -15 -10 -12 0 -15 13 -13 68 l2 67 3
-57 c2 -32 8 -58 13 -58z m340 61 c0 -27 3 -56 6 -65 4 -11 1 -16 -10 -16 -13
0 -16 12 -16 65 0 37 4 65 10 65 6 0 10 -22 10 -49z m-949 32 c6 -53 2 -113
-7 -113 -12 0 -24 84 -16 108 4 13 21 17 23 5z m1057 -10 c12 -12 13 -18 4
-21 -14 -4 -17 -62 -2 -62 6 0 10 -4 10 -10 0 -16 -27 -11 -34 6 -8 20 -8 104
0 104 3 0 13 -8 22 -17z m-1950 -15 c7 -7 12 -24 12 -38 0 -48 -49 -69 -70
-31 -14 27 -13 47 6 65 19 19 36 20 52 4z m108 -13 c24 -37 5 -78 -34 -73 -23
2 -28 8 -30 36 -6 59 34 82 64 37z m255 4 c19 -31 0 -79 -31 -79 -11 0 -20 -7
-20 -15 0 -8 -4 -15 -10 -15 -6 0 -10 28 -10 63 l0 64 31 -2 c17 -1 35 -8 40
-16z m89 12 c3 -1 -5 -6 -17 -11 -18 -7 -23 -17 -23 -45 0 -19 -4 -35 -10 -35
-5 0 -10 22 -10 49 0 48 1 50 28 47 15 -2 29 -5 32 -5z m86 -16 c24 -37 5 -78
-34 -73 -23 2 -28 8 -30 36 -6 59 34 82 64 37z m154 -15 c0 -33 3 -40 20 -40
17 0 20 7 20 40 0 22 5 40 10 40 6 0 10 -22 10 -50 l0 -50 -34 0 c-22 0 -36 6
-40 16 -10 25 -7 84 4 84 6 0 10 -18 10 -40z m148 22 c2 -8 -5 -11 -20 -10
-19 3 -23 -2 -23 -22 0 -18 6 -26 23 -28 29 -4 29 -22 -1 -22 -31 0 -47 18
-47 52 0 40 56 65 68 30z m112 -38 c0 -24 -4 -44 -10 -44 -5 0 -10 23 -10 51
0 31 4 48 10 44 6 -3 10 -26 10 -51z m84 43 c22 -16 18 -65 -6 -81 -40 -25
-77 43 -43 78 20 19 26 20 49 3z m109 4 c11 -2 8 -91 -3 -91 -5 0 -10 18 -10
41 0 33 -3 40 -17 37 -12 -2 -20 -16 -24 -43 l-6 -40 -2 50 c-1 50 0 51 27 49
15 -1 30 -2 35 -3z m211 -31 l10 -33 11 33 c6 19 17 36 23 38 8 2 3 -20 -11
-60 -17 -43 -30 -64 -43 -66 -16 -3 -16 -1 -4 7 14 10 9 47 -15 105 -6 14 -5
18 6 14 7 -2 18 -20 23 -38z m242 15 c24 -37 5 -78 -34 -73 -23 2 -28 8 -30
36 -6 59 34 82 64 37z m88 19 c22 -8 11 -23 -13 -17 -11 3 -21 -2 -24 -11 -10
-26 3 -46 30 -46 13 0 21 -4 18 -10 -12 -20 -55 -11 -67 15 -9 19 -8 29 6 50
17 26 24 29 50 19z m94 -6 c7 -7 12 -29 12 -51 0 -38 0 -38 -37 -35 -50 4 -58
33 -14 51 32 14 32 27 -1 27 -11 0 -16 5 -13 10 8 14 38 13 53 -2z m227 -20
l14 -33 11 33 c7 17 16 32 22 32 6 0 8 -6 6 -12 -3 -7 -13 -37 -23 -65 -14
-39 -24 -53 -38 -53 -16 0 -17 2 -3 15 13 14 13 20 0 56 -7 23 -14 45 -14 50
0 19 12 8 25 -23z m149 -1 c12 -34 -1 -61 -33 -65 -11 -2 -21 -10 -21 -18 0
-8 -4 -14 -10 -14 -6 0 -10 28 -10 64 l0 64 32 -1 c26 -2 35 -8 42 -30z m87
23 c10 -6 19 -20 19 -30 0 -16 -7 -20 -31 -20 -17 0 -28 -4 -24 -10 3 -5 17
-10 31 -10 14 0 22 -4 19 -10 -9 -14 -48 -13 -63 2 -17 17 -15 54 4 72 18 19
20 19 45 6z m-2205 -370 c0 -14 4 -31 8 -38 11 -19 -13 -42 -43 -41 l-26 1 24
7 c32 9 39 31 12 38 -20 5 -20 5 2 23 18 15 19 19 7 23 -40 14 -43 16 -15 14
25 -2 30 -6 31 -27z m89 -25 c0 -49 -1 -50 -30 -50 -28 0 -30 3 -33 39 -5 54
3 68 35 64 26 -3 28 -6 28 -53z m35 33 l0 -22 16 22 c8 12 22 22 31 22 13 0
11 -6 -10 -28 l-27 -28 25 -24 c14 -13 23 -26 20 -28 -3 -3 -16 5 -30 18 l-25
23 0 -21 c0 -12 -4 -22 -10 -22 -5 0 -10 25 -10 55 0 30 5 55 10 55 6 0 10
-10 10 -22z m4507 -15 c-807 -2 -2127 -2 -2935 0 -807 1 -146 2 1468 2 1614 0
2275 -1 1467 -2z m-3527 -438 l0 -225 2498 -2 2497 -3 -2497 -2 -2498 -3 0
-330 0 -330 100 0 100 0 0 115 0 115 390 0 390 0 0 -115 0 -115 2008 -2 2007
-3 -2007 -2 -2008 -3 0 -325 0 -325 100 0 100 0 0 55 0 55 390 0 390 0 0 -55
0 -55 100 0 c93 0 100 1 100 20 0 20 7 20 390 20 383 0 390 0 390 -20 0 -19 7
-20 100 -20 82 0 100 3 100 15 0 13 50 15 390 15 340 0 390 -2 390 -15 0 -13
66 -15 535 -15 350 0 535 -3 535 -10 0 -7 -985 -10 -2935 -10 -1950 0 -2935 3
-2935 10 0 6 23 10 50 10 l50 0 0 325 0 325 -47 2 -48 2 48 3 47 4 0 330 0
329 -47 2 -48 2 48 3 47 4 0 225 0 224 390 0 390 0 0 -225z m-1092 -217 c2 -9
-11 -29 -28 -45 l-32 -28 33 -6 c33 -6 33 -6 -9 -8 -39 -1 -42 1 -32 18 5 11
20 27 31 35 28 19 19 50 -12 41 -15 -5 -19 -4 -14 5 10 17 59 8 63 -12z m77
-33 c0 -49 -1 -50 -30 -50 -28 0 -30 3 -33 39 -5 54 3 68 35 64 26 -3 28 -6
28 -53z m35 33 l0 -22 16 22 c8 12 22 22 31 22 13 0 11 -6 -10 -28 l-27 -28
25 -24 c14 -13 23 -26 20 -28 -3 -3 -16 5 -30 18 l-25 23 0 -21 c0 -12 -4 -22
-10 -22 -5 0 -10 25 -10 55 0 30 5 55 10 55 6 0 10 -10 10 -22z m-110 -703 c0
-30 -4 -55 -10 -55 -5 0 -10 20 -10 45 0 38 -2 43 -17 38 -16 -6 -16 -5 -4 10
27 33 41 20 41 -38z m75 0 c0 -49 -1 -50 -30 -50 -28 0 -30 3 -33 39 -5 54 3
68 35 64 26 -3 28 -6 28 -53z m35 33 l0 -22 16 22 c8 12 22 22 31 22 13 0 11
-6 -10 -28 l-27 -28 25 -24 c14 -13 23 -26 20 -28 -3 -3 -16 5 -30 18 l-25 23
0 -21 c0 -12 -4 -22 -10 -22 -5 0 -10 25 -10 55 0 30 5 55 10 55 6 0 10 -10
10 -22z m-35 -703 c0 -49 -1 -50 -30 -50 -28 0 -30 3 -33 39 -5 54 3 68 35 64
26 -3 28 -6 28 -53z m35 33 l0 -22 16 22 c8 12 22 22 31 22 13 0 11 -6 -10
-28 l-27 -28 25 -24 c14 -13 23 -26 20 -28 -3 -3 -16 5 -30 18 l-25 23 0 -21
c0 -12 -4 -22 -10 -22 -5 0 -10 25 -10 55 0 30 5 55 10 55 6 0 10 -10 10 -22z
m4573 -146 c35 -36 36 -39 21 -60 -19 -27 -38 -28 -64 -2 -24 24 -25 34 -4 55
13 12 14 19 4 30 -26 31 8 13 43 -23z m980 0 l38 -39 -19 -24 c-18 -22 -22
-22 -48 -9 -16 8 -32 16 -36 18 -17 8 -7 -26 12 -43 11 -10 18 -21 15 -23 -3
-3 -18 7 -34 22 -29 28 -32 56 -5 56 8 0 14 7 14 15 0 7 8 18 17 24 14 8 15
12 4 25 -27 32 6 15 42 -22z m-4923 -4 c0 12 5 22 10 22 6 0 10 -11 10 -25 0
-20 5 -25 28 -26 l27 -2 -28 -4 c-23 -4 -26 -7 -16 -19 24 -29 -6 -13 -43 23
-42 41 -54 71 -13 33 l25 -23 0 21z m994 11 c-3 -6 3 -24 15 -40 28 -37 13
-38 -22 -1 -21 22 -24 31 -15 40 15 15 32 16 22 1z m1963 4 c-10 -9 23 -43 42
-43 11 0 12 -3 3 -12 -8 -8 -20 -5 -46 13 -46 31 -53 49 -19 49 14 0 23 -3 20
-7z m-957 -28 c29 -31 15 -33 -17 -4 -20 20 -23 20 -29 5 -4 -11 2 -26 16 -42
32 -33 13 -31 -22 3 -26 25 -27 28 -11 45 22 24 35 23 63 -7z m-1028 -16 c20
-11 20 -11 -3 -35 -19 -20 -20 -24 -5 -24 9 0 19 7 22 15 4 8 10 12 16 9 10
-7 -19 -44 -35 -44 -17 0 -47 32 -47 50 0 14 18 40 28 40 2 0 12 -5 24 -11z
m928 7 c0 -3 -4 -8 -10 -11 -5 -3 -10 -1 -10 4 0 6 5 11 10 11 6 0 10 -2 10
-4z m1042 -23 c26 -25 27 -28 11 -45 -9 -10 -21 -18 -28 -18 -14 0 -61 48 -53
55 2 3 13 -4 23 -15 20 -22 45 -27 45 -8 0 6 -10 22 -22 35 -30 32 -10 29 24
-4z m943 -13 c21 -22 36 -43 32 -47 -8 -7 -87 65 -87 79 0 17 17 7 55 -32z
m-3927 10 c-11 -16 -10 -23 5 -37 13 -13 20 -14 29 -5 18 18 33 15 17 -4 -7
-9 -22 -14 -35 -11 -18 3 -22 0 -21 -21 1 -14 -6 -29 -18 -38 -18 -12 -24 -12
-43 2 -39 27 -17 83 28 71 17 -4 20 -2 15 14 -4 11 -1 26 5 34 18 22 32 18 18
-5z m1982 -15 c13 -14 20 -28 17 -32 -8 -7 -57 35 -57 49 0 15 16 8 40 -17z
m935 -35 c38 -39 40 -57 3 -24 -14 14 -20 14 -33 4 -19 -16 -19 -34 0 -50 9
-7 13 -15 10 -18 -7 -7 -85 68 -85 82 0 5 9 1 20 -9 19 -17 21 -17 40 0 19 17
19 19 4 37 -33 36 3 17 41 -22z m-963 13 c23 -21 23 -45 0 -66 -17 -16 -21
-14 -62 28 -24 25 -40 45 -34 45 5 0 15 -5 20 -10 8 -8 15 -6 24 5 16 19 29
19 52 -2z m1948 7 c12 -8 12 -11 -3 -28 -9 -10 -17 -22 -17 -25 0 -14 23 -7
36 11 12 16 13 16 14 0 0 -41 -72 -40 -85 2 -12 36 22 61 55 40z m-2930 -25
l24 -25 -22 -22 -22 -22 -29 22 c-19 14 -32 18 -36 11 -10 -15 24 -49 43 -42
10 4 13 2 8 -5 -11 -17 -27 -15 -51 8 l-22 20 -18 -20 c-18 -20 -18 -20 13
-20 17 0 34 -5 37 -10 8 -12 -12 -40 -28 -40 -7 0 -7 4 1 12 19 19 14 29 -13
22 -32 -8 -47 22 -20 42 11 8 15 19 11 30 -4 12 -2 15 9 11 8 -4 21 0 29 8 12
12 16 11 31 -5 10 -11 24 -20 32 -20 18 0 16 30 -4 52 -25 28 0 21 27 -7z
m3917 -7 c20 -19 20 -21 5 -39 -19 -22 -35 -24 -50 -6 -9 10 -7 19 4 35 13 19
13 22 0 22 -8 0 -16 -6 -19 -12 -2 -7 -8 -9 -13 -5 -12 11 25 38 40 30 6 -3
21 -15 33 -25z m-1042 -28 c22 -22 35 -40 30 -40 -6 0 -29 18 -50 40 -51 52
-33 51 20 0z m-55 12 c0 -4 -5 -13 -12 -20 -19 -19 6 -40 27 -22 17 14 21 0 5
-16 -8 -8 -6 -15 5 -24 8 -7 15 -17 15 -23 0 -6 -20 9 -45 33 -42 41 -44 45
-28 62 17 19 33 24 33 10z m-1898 -29 c26 -25 27 -28 11 -45 -32 -35 -66 -11
-43 31 12 23 1 28 -18 9 -7 -7 -12 -8 -12 -2 0 10 20 34 29 34 3 0 17 -12 33
-27z m-1978 -5 c21 -30 20 -40 -5 -72 l-22 -27 -38 37 c-43 42 -48 58 -21 73
30 18 70 13 86 -11z m4849 7 c9 23 41 18 67 -10 28 -30 18 -33 -18 -5 -37 30
-53 10 -24 -30 31 -41 16 -38 -30 7 -38 37 -55 71 -19 39 16 -15 19 -15 24 -1z
m-2991 -34 c-16 -28 -15 -31 2 -50 23 -25 43 -27 68 -4 10 9 18 11 18 5 0 -6
-11 -19 -24 -27 -51 -34 -115 30 -81 81 22 34 37 30 17 -5z m1020 -3 c-20 -20
-13 -28 19 -21 28 5 30 4 27 -18 -2 -14 -11 -25 -23 -27 l-20 -4 20 16 c22 17
23 17 -24 19 -43 2 -51 -16 -21 -49 31 -32 13 -31 -21 2 -27 26 -29 54 -4 54
8 0 17 9 20 20 3 11 14 20 23 20 12 0 13 -3 4 -12z m1936 -17 c-9 -15 -9 -23
1 -35 16 -19 38 -21 44 -3 2 6 8 8 13 4 13 -12 -24 -37 -44 -30 -10 3 -22 12
-29 20 -8 10 -13 11 -18 3 -4 -6 3 -22 16 -36 32 -34 15 -43 -21 -9 l-29 28
32 38 c33 40 56 53 35 20z m-3890 -34 c22 -23 22 -24 3 -42 -21 -18 -51 -15
-51 5 0 6 5 20 10 31 8 13 7 19 0 19 -6 0 -13 -7 -16 -15 -4 -8 -10 -12 -16
-9 -13 8 11 34 31 34 10 0 27 -10 39 -23z m2924 -23 c9 -19 8 -28 -5 -42 -13
-14 -14 -21 -5 -30 6 -6 9 -14 7 -17 -3 -2 -24 15 -47 38 l-42 43 19 21 c25
26 58 20 73 -13z m-3945 -16 c35 -34 41 -56 21 -76 -20 -20 -32 -13 -14 7 11
12 14 21 7 26 -6 3 -11 1 -11 -4 0 -6 -14 -11 -30 -11 -42 0 -62 40 -35 70 23
26 23 26 62 -12z m942 18 c9 -11 10 -20 1 -36 -9 -16 -8 -25 1 -36 6 -8 9 -17
5 -21 -3 -4 -24 11 -46 32 -37 36 -39 40 -23 57 19 22 46 23 62 4z m1976 -17
c4 -5 -1 -19 -11 -30 -9 -10 -14 -22 -10 -27 4 -4 14 2 22 12 7 11 17 17 20
13 10 -9 -16 -37 -34 -37 -19 0 -52 29 -52 45 0 28 51 48 65 24z m1935 -9 c28
-28 26 -66 -4 -86 -21 -13 -29 -14 -53 -2 -39 18 -52 61 -28 88 23 26 59 26
85 0z m-2921 -25 c17 -20 31 -41 31 -48 0 -15 -20 -37 -34 -37 -6 0 -5 5 2 12
7 7 12 18 12 25 0 11 -5 10 -23 -2 -21 -13 -25 -13 -45 1 -26 18 -28 41 -5 66
22 25 26 23 62 -17z m1946 -5 c33 -36 -13 -83 -53 -54 -21 14 -30 53 -15 67
13 14 50 7 68 -13z m-3935 -25 c29 -31 15 -33 -17 -3 -18 17 -26 19 -35 10 -9
-9 -6 -18 12 -37 31 -33 16 -46 -16 -13 -22 22 -24 29 -15 47 15 28 42 27 71
-4z m2927 1 c15 -13 25 -28 20 -32 -4 -4 -18 3 -32 16 -35 32 -54 14 -25 -23
32 -41 9 -32 -35 13 -21 22 -34 40 -28 40 7 0 15 -5 19 -11 5 -8 10 -6 16 5
13 22 32 20 65 -8z m916 -12 c-3 -8 4 -25 17 -40 31 -32 13 -31 -21 2 -22 21
-25 29 -16 40 16 18 28 17 20 -2z m-1923 -19 c29 -31 15 -33 -17 -4 -20 20
-23 20 -29 5 -4 -11 2 -26 16 -42 32 -33 13 -31 -22 3 -26 25 -27 28 -11 45
22 24 35 23 63 -7z m1856 -4 c-22 -25 -17 -60 11 -78 19 -13 24 -12 43 7 27
27 40 18 15 -10 -10 -11 -29 -20 -42 -20 -29 0 -63 33 -63 62 0 23 26 58 43
58 6 0 2 -9 -7 -19z m-3841 -21 c16 -16 24 -30 19 -30 -6 0 -23 14 -39 30 -16
17 -24 30 -19 30 6 0 23 -13 39 -30z m2909 18 c-9 -15 26 -47 44 -41 10 4 13
2 8 -5 -11 -18 -31 -15 -51 8 -10 11 -22 17 -27 14 -5 -4 2 -18 16 -33 26 -27
26 -28 7 -45 -11 -10 -27 -16 -36 -13 -18 8 -20 38 -3 55 9 9 9 12 1 12 -7 0
-15 -4 -18 -10 -10 -16 -25 -12 -19 5 3 8 15 17 26 21 13 4 18 12 15 24 -3 13
1 18 19 18 13 0 21 -5 18 -10z m-1024 -2 c0 -3 -4 -8 -10 -11 -5 -3 -10 -1
-10 4 0 6 5 11 10 11 6 0 10 -2 10 -4z m-1968 -28 c19 19 43 14 68 -13 29 -31
15 -33 -17 -3 -18 17 -26 19 -35 10 -9 -9 -7 -19 10 -42 31 -41 16 -38 -30 7
-37 36 -54 69 -23 43 12 -10 19 -10 27 -2z m2008 -13 c30 -32 18 -46 -14 -16
-16 15 -26 19 -31 11 -10 -16 24 -50 43 -43 10 4 13 2 8 -5 -11 -18 -31 -15
-51 8 -10 11 -21 17 -25 15 -4 -3 -10 5 -13 16 -4 15 -2 19 9 15 7 -3 20 1 26
9 18 19 21 19 48 -10z m-2038 -37 c-19 -19 -14 -29 11 -23 33 9 54 -17 31 -39
-20 -20 -32 -13 -14 9 11 13 8 15 -18 15 -17 0 -34 5 -37 10 -8 12 12 40 28
40 7 0 7 -4 -1 -12z m2894 -1 c-39 -29 1 -106 42 -81 26 17 21 40 -8 36 -24
-3 -24 -2 -7 15 16 17 18 16 39 -4 21 -22 21 -23 3 -43 -36 -40 -105 -14 -105
40 0 29 16 50 39 50 12 0 11 -3 -3 -13z m-2951 -17 c3 -5 1 -10 -4 -10 -6 0
-11 5 -11 10 0 6 2 10 4 10 3 0 8 -4 11 -10z m2045 -15 c29 -31 15 -33 -17 -3
-18 17 -26 19 -35 10 -9 -9 -7 -17 10 -35 33 -35 27 -45 -8 -12 -23 22 -27 32
-19 46 14 26 41 24 69 -6z m-2070 -3 c0 -4 -5 -13 -12 -20 -9 -9 -9 -15 0 -24
9 -9 15 -9 24 0 20 20 33 14 14 -7 -15 -16 -15 -19 -1 -31 8 -7 15 -17 15 -23
0 -6 -18 7 -40 28 -42 41 -47 54 -28 73 14 14 28 16 28 4z m75 -32 c16 -16 24
-30 19 -30 -6 0 -23 14 -39 30 -16 17 -24 30 -19 30 6 0 23 -13 39 -30z m1927
-17 c26 -25 27 -28 11 -45 -9 -10 -21 -18 -28 -18 -14 0 -61 48 -53 55 2 3 13
-4 23 -15 20 -22 45 -27 45 -8 0 6 -10 22 -22 35 -30 32 -10 29 24 -4z m-67
-53 c38 -39 40 -57 3 -24 -14 14 -20 14 -33 4 -19 -16 -19 -34 0 -50 9 -7 13
-15 10 -18 -7 -7 -85 68 -85 82 0 5 9 1 20 -9 19 -17 21 -17 40 0 19 17 19 19
4 37 -33 36 3 17 41 -22z m-5232 -677 l-4123 -3 -3 -1673 -2 -1672 -3 1678 -2
1677 4128 -2 4127 -3 -4122 -2z m6865 0 l-2448 -3 -3 -1673 -2 -1672 -3 1678
-2 1677 2453 -2 2452 -3 -2447 -2z m-10845 -63 c-20 -8 -23 -17 -23 -65 0 -30
-4 -55 -10 -55 -6 0 -10 26 -10 59 0 48 -3 60 -17 64 -10 3 5 5 32 5 39 1 45
-1 28 -8z m297 -44 c0 -34 5 -56 13 -59 6 -2 9 -8 5 -12 -4 -4 -14 -5 -23 -2
-11 5 -15 22 -15 67 0 33 4 60 10 60 6 0 10 -24 10 -54z m178 26 c5 -30 -14
-52 -44 -52 -19 0 -24 -5 -24 -25 0 -14 -4 -25 -10 -25 -6 0 -10 29 -10 66 l0
65 43 -3 c35 -3 43 -7 45 -26z m282 -38 l0 -65 -37 3 c-35 3 -38 6 -41 36 -4
40 14 65 39 57 14 -5 19 -1 19 14 0 12 5 21 10 21 6 0 10 -29 10 -66z m7737
24 l9 -43 14 43 c7 23 17 42 21 42 5 0 13 -19 20 -42 10 -36 13 -40 20 -23 4
11 8 30 8 43 1 12 6 22 12 22 8 0 9 -11 5 -32 -4 -18 -10 -48 -13 -66 -7 -42
-25 -36 -37 11 -12 48 -23 47 -31 -4 -9 -52 -26 -46 -42 17 -15 58 -16 74 -4
74 4 0 12 -19 18 -42z m504 33 c-12 -8 -12 -12 -2 -25 9 -11 10 -16 2 -16 -6
0 -11 -17 -11 -40 0 -56 -17 -50 -22 8 -6 64 0 82 26 82 16 0 18 -2 7 -9z
m139 -45 c0 -34 5 -56 13 -59 6 -2 9 -8 5 -12 -4 -4 -14 -5 -23 -2 -11 5 -15
22 -15 67 0 33 4 60 10 60 6 0 10 -24 10 -54z m60 5 c0 -27 3 -56 6 -65 4 -11
1 -16 -10 -16 -13 0 -16 12 -16 65 0 37 4 65 10 65 6 0 10 -22 10 -49z m190
29 c0 -13 5 -18 15 -14 25 10 45 -16 45 -57 0 -50 -18 -51 -22 -1 -2 25 -8 37
-18 37 -10 0 -16 -12 -18 -37 -5 -63 -22 -42 -22 27 0 37 4 65 10 65 6 0 10
-9 10 -20z m402 8 c-8 -8 -9 -15 -1 -25 8 -9 8 -13 0 -13 -6 0 -11 -17 -11
-40 0 -56 -17 -50 -22 8 -5 53 5 82 29 82 13 0 14 -3 5 -12z m598 -25 l0 -38
20 25 c10 14 22 22 26 18 4 -4 1 -15 -6 -23 -11 -14 -11 -21 4 -46 9 -16 13
-29 7 -29 -6 0 -15 9 -21 20 -6 11 -15 20 -20 20 -6 0 -10 -9 -10 -20 0 -11
-4 -20 -10 -20 -6 0 -10 28 -10 65 0 37 4 65 10 65 6 0 10 -17 10 -37z
m-10239 20 c6 -53 2 -113 -7 -113 -12 0 -24 84 -16 108 4 13 21 17 23 5z m850
0 c6 -48 2 -112 -6 -110 -11 4 -25 85 -18 105 6 13 22 17 24 5z m7750 0 c6
-48 2 -112 -6 -110 -11 4 -25 85 -18 105 6 13 22 17 24 5z m927 -10 c12 -12
13 -18 4 -21 -14 -4 -17 -62 -2 -62 6 0 10 -4 10 -10 0 -16 -27 -11 -34 6 -8
20 -8 104 0 104 3 0 13 -8 22 -17z m-9594 -19 c19 -18 20 -38 6 -65 -13 -23
-55 -25 -64 -3 -23 59 19 108 58 68z m164 4 c7 -7 12 -29 12 -51 0 -38 0 -38
-37 -35 -50 4 -58 33 -14 51 32 14 32 27 -1 27 -11 0 -16 5 -13 10 8 14 38 13
53 -2z m312 3 c3 -1 -5 -6 -17 -11 -18 -7 -23 -17 -23 -45 0 -19 -4 -35 -10
-35 -5 0 -10 22 -10 49 0 48 1 50 28 47 15 -2 29 -5 32 -5z m86 -16 c24 -37 5
-78 -34 -73 -23 2 -28 8 -30 36 -6 59 34 82 64 37z m154 -15 c0 -33 3 -40 20
-40 17 0 20 7 20 40 0 22 5 40 10 40 6 0 10 -22 10 -50 l0 -50 -34 0 c-22 0
-36 6 -40 16 -10 25 -7 84 4 84 6 0 10 -18 10 -40z m148 22 c2 -8 -5 -11 -20
-10 -19 3 -23 -2 -23 -22 0 -18 6 -26 23 -28 29 -4 29 -22 -1 -22 -31 0 -47
18 -47 52 0 40 56 65 68 30z m112 -38 c0 -24 -4 -44 -10 -44 -5 0 -10 23 -10
51 0 31 4 48 10 44 6 -3 10 -26 10 -51z m88 44 c7 -7 12 -24 12 -38 0 -48 -49
-69 -70 -31 -14 27 -13 47 6 65 19 19 36 20 52 4z m105 3 c11 -2 8 -91 -3 -91
-5 0 -10 18 -10 41 0 33 -3 40 -17 37 -12 -2 -20 -16 -24 -43 l-6 -40 -2 50
c-1 50 0 51 27 49 15 -1 30 -2 35 -3z m7435 -3 c7 -7 12 -29 12 -51 0 -38 0
-38 -37 -35 -50 4 -58 33 -14 51 32 14 32 27 -1 27 -11 0 -16 5 -13 10 8 14
38 13 53 -2z m166 -10 c22 -32 20 -38 -14 -38 -16 0 -30 -4 -30 -10 0 -5 12
-10 27 -10 19 0 24 -3 16 -11 -6 -6 -21 -9 -34 -7 -19 2 -25 10 -27 36 -6 57
33 82 62 40z m96 13 c3 -1 -5 -6 -17 -11 -18 -7 -23 -17 -23 -45 0 -19 -4 -35
-10 -35 -5 0 -10 22 -10 49 0 48 1 50 28 47 15 -2 29 -5 32 -5z m134 -7 c9 -8
16 -31 16 -50 0 -35 -1 -35 -37 -32 -30 2 -39 8 -41 25 -2 17 3 23 28 28 31 7
32 27 2 24 -30 -3 -37 1 -22 11 21 14 36 12 54 -6z m250 10 c22 -8 11 -23 -13
-17 -11 3 -21 -2 -24 -11 -10 -26 3 -46 30 -46 13 0 21 -4 18 -10 -12 -20 -55
-11 -67 15 -9 19 -8 29 6 50 17 26 24 29 50 19z m190 0 c11 -4 16 -19 16 -51
0 -44 0 -44 -32 -41 -43 4 -53 42 -14 52 29 7 36 28 9 25 -31 -3 -39 1 -23 11
18 11 23 12 44 4z m106 -3 c3 -1 -5 -6 -17 -11 -18 -7 -23 -17 -23 -45 0 -19
-4 -35 -10 -35 -5 0 -10 22 -10 49 0 48 1 50 28 47 15 -2 29 -5 32 -5z m256
-16 c24 -37 5 -78 -34 -73 -23 2 -28 8 -30 36 -6 59 34 82 64 37z m94 16 c3
-1 -5 -6 -17 -11 -18 -7 -23 -17 -23 -45 0 -19 -4 -35 -10 -35 -5 0 -10 22
-10 49 0 48 1 50 28 47 15 -2 29 -5 32 -5z m82 -23 l12 -33 14 35 15 35 15
-35 15 -35 10 33 c11 37 32 44 23 7 -20 -79 -40 -96 -52 -42 l-7 32 -14 -32
c-7 -18 -17 -33 -22 -33 -7 0 -31 73 -31 94 0 17 12 2 22 -26z m194 7 c24 -37
5 -78 -34 -73 -23 2 -28 8 -30 36 -6 59 34 82 64 37z m90 13 c4 -5 -2 -8 -14
-8 -19 0 -22 -6 -22 -40 0 -22 -4 -40 -10 -40 -5 0 -10 22 -10 48 0 44 2 48
24 47 13 0 28 -3 32 -7z m175 2 c10 -6 19 -20 19 -30 0 -16 -7 -20 -31 -20
-17 0 -28 -4 -24 -10 3 -5 17 -10 31 -10 14 0 22 -4 19 -10 -9 -14 -48 -13
-63 2 -17 17 -15 54 4 72 18 19 20 19 45 6z m109 0 c3 -1 -6 -5 -20 -9 -20 -5
-26 -15 -31 -46 -6 -40 -6 -40 -8 10 -1 50 0 51 27 49 15 -1 29 -2 32 -4z m80
0 c16 -10 8 -13 -27 -10 -13 1 -23 -3 -23 -9 0 -6 6 -11 13 -11 24 0 48 -25
41 -43 -7 -19 -58 -24 -69 -7 -4 6 7 10 25 10 18 0 29 4 25 10 -3 6 -15 10
-26 10 -28 0 -37 30 -14 46 22 16 35 17 55 4z m-1790 -285 c0 -25 -4 -45 -10
-45 -5 0 -10 16 -10 35 0 19 -5 35 -11 35 -5 0 -7 5 -4 10 3 6 13 10 21 10 10
0 14 -12 14 -45z m78 33 c9 -9 15 -9 24 0 7 7 20 12 30 12 21 0 35 -46 21 -69
-13 -21 -43 -26 -54 -10 -6 11 -11 11 -21 1 -32 -32 -67 2 -54 54 7 26 34 32
54 12z m4032 -968 l0 -935 -208 1 -207 2 -3 926 -2 926 -55 0 c-54 0 -55 0
-55 -30 l0 -30 -270 0 -270 0 0 -30 0 -30 -265 0 -265 0 0 -45 0 -45 -271 0
-270 0 3 -140 3 -140 -267 0 -268 0 0 -290 0 -290 -265 0 -265 0 0 -390 c0
-214 -3 -390 -7 -390 -5 -1 -100 -2 -213 -3 l-205 -2 3 398 2 397 265 0 265 0
0 290 0 290 268 2 267 3 0 138 0 137 268 0 267 0 0 45 0 45 265 0 265 0 0 30
0 30 270 0 270 0 0 33 0 32 475 0 475 0 0 -935z m-12980 895 c0 -30 2 -32 28
-26 25 5 25 6 5 9 -13 2 -23 8 -23 13 0 14 58 11 63 -3 4 -10 7 -10 18 0 18
16 59 15 59 -2 0 -8 -8 -13 -17 -12 -10 0 -18 -6 -18 -14 0 -8 8 -14 18 -14 9
1 17 -4 17 -12 0 -17 -41 -19 -58 -2 -9 9 -12 9 -12 0 0 -8 -20 -11 -60 -11
-57 1 -60 2 -60 26 0 19 -4 24 -16 19 -9 -3 -20 -6 -25 -6 -5 0 -9 -9 -9 -20
0 -11 -7 -20 -15 -20 -12 0 -15 13 -15 55 l0 55 60 -1 60 -1 0 -33z m620 25
c0 -6 -10 -8 -24 -4 -33 8 -53 -27 -37 -63 9 -20 16 -24 37 -19 17 5 23 3 19
-4 -17 -27 -85 4 -85 39 0 31 30 61 61 61 16 0 29 -5 29 -10z m323 3 c-15 -3
-23 -12 -23 -24 0 -13 7 -19 23 -20 l22 -2 -22 -4 c-16 -3 -23 -11 -23 -29 0
-13 -4 -24 -10 -24 -5 0 -10 25 -10 55 l0 55 33 -1 c23 -1 26 -3 10 -6z m157
-48 c0 -30 -4 -55 -10 -55 -5 0 -10 9 -10 20 0 16 -7 20 -31 20 -20 0 -29 -4
-26 -12 2 -7 14 -13 26 -12 11 0 21 -3 21 -8 0 -16 -53 -4 -64 15 -23 37 35
77 61 41 12 -16 13 -15 13 14 0 18 5 32 10 32 6 0 10 -25 10 -55z m90 -1 l0
-55 -32 3 c-30 3 -33 6 -33 38 0 29 4 36 23 38 12 2 22 10 22 18 0 8 5 14 10
14 6 0 10 -25 10 -56z m263 49 c-15 -3 -23 -12 -23 -24 0 -13 7 -19 23 -20
l22 -2 -22 -4 c-16 -3 -23 -11 -23 -29 0 -13 -4 -24 -10 -24 -5 0 -10 25 -10
55 l0 55 33 -1 c23 -1 26 -3 10 -6z m54 1 c-3 -3 -12 -4 -19 -1 -8 3 -5 6 6 6
11 1 17 -2 13 -5z m93 -8 c0 -8 10 -16 23 -18 18 -2 23 -10 25 -40 2 -22 -1
-38 -7 -38 -6 0 -11 16 -11 35 0 19 -4 35 -9 35 -11 0 -21 -25 -21 -51 0 -10
-4 -19 -10 -19 -5 0 -10 25 -10 55 0 30 5 55 10 55 6 0 10 -6 10 -14z m398 2
c17 -17 15 -64 -4 -82 -8 -9 -29 -16 -45 -16 -29 0 -29 1 -29 55 l0 55 33 0
c18 0 38 -5 45 -12z m202 -14 c0 -23 2 -25 15 -14 9 7 18 11 20 8 3 -3 -2 -11
-10 -18 -14 -12 -13 -15 6 -37 17 -17 19 -23 8 -23 -8 0 -20 5 -27 12 -9 9
-12 9 -12 0 0 -7 -4 -12 -10 -12 -5 0 -10 25 -10 55 0 30 5 55 10 55 6 0 10
-12 10 -26z m210 6 c24 -24 25 -47 3 -72 -18 -20 -63 -24 -81 -6 -17 17 -15
64 4 82 21 22 50 20 74 -4z m130 11 c0 -4 -11 -6 -25 -4 -19 4 -27 0 -37 -22
-13 -30 -2 -58 26 -63 19 -4 23 34 4 41 -7 3 -3 6 10 6 18 1 22 -4 22 -29 0
-27 -3 -30 -29 -30 -54 0 -80 53 -44 92 16 18 73 26 73 9z m160 -5 c0 -8 10
-16 23 -18 18 -2 23 -10 25 -40 2 -22 -1 -38 -7 -38 -6 0 -11 16 -11 35 0 19
-4 35 -9 35 -11 0 -21 -25 -21 -51 0 -14 -7 -19 -30 -19 -28 0 -30 3 -30 35 0
19 -4 35 -10 35 -5 0 -10 -16 -10 -36 0 -34 -1 -35 -32 -32 -39 4 -44 28 -10
43 27 12 29 29 2 20 -12 -4 -20 -2 -20 5 0 6 15 10 36 8 22 -1 39 3 45 12 8
11 12 12 16 3 7 -18 23 -16 23 2 0 8 5 15 10 15 6 0 10 -6 10 -14z m320 -11
c0 -20 5 -25 25 -25 20 0 25 5 25 25 0 14 5 25 10 25 6 0 10 -25 10 -55 0 -30
-4 -55 -10 -55 -5 0 -10 11 -10 25 0 20 -5 25 -25 25 -20 0 -25 -5 -25 -25 0
-14 -4 -25 -10 -25 -5 0 -10 25 -10 55 0 30 5 55 10 55 6 0 10 -11 10 -25z
m450 0 c0 -18 5 -25 20 -25 15 0 20 7 20 25 0 16 6 25 15 25 12 0 15 -13 15
-55 0 -42 -3 -55 -15 -55 -9 0 -15 9 -15 25 0 18 -5 25 -20 25 -15 0 -20 -7
-20 -25 0 -14 -4 -25 -10 -25 -5 0 -10 25 -10 55 0 30 5 55 10 55 6 0 10 -11
10 -25z m630 15 c0 -5 -7 -7 -15 -4 -23 9 -45 -15 -45 -47 0 -28 28 -47 50
-34 5 3 10 1 10 -4 0 -15 -53 -14 -68 1 -18 18 -15 75 6 87 22 13 62 14 62 1z
m110 -4 c0 -8 10 -16 23 -18 18 -2 22 -9 22 -38 0 -32 -3 -35 -32 -38 l-33 -3
0 55 c0 31 5 56 10 56 6 0 10 -6 10 -14z m87 8 c-3 -3 -12 -4 -19 -1 -8 3 -5
6 6 6 11 1 17 -2 13 -5z m391 -6 c7 -7 12 -26 12 -43 0 -38 -16 -55 -50 -55
-34 0 -50 17 -50 55 0 38 16 55 50 55 14 0 31 -5 38 -12z m162 -2 c0 -8 10
-16 23 -18 18 -2 23 -10 25 -40 2 -22 -1 -38 -7 -38 -6 0 -11 16 -11 35 0 19
-4 35 -9 35 -11 0 -21 -25 -21 -51 0 -10 -4 -19 -10 -19 -5 0 -10 25 -10 55 0
30 5 55 10 55 6 0 10 -6 10 -14z m270 -42 l0 -55 -31 3 c-58 6 -66 68 -10 76
11 2 21 10 21 18 0 8 5 14 10 14 6 0 10 -25 10 -56z m285 26 c0 -16 -8 -28
-22 -35 -13 -5 -23 -18 -23 -27 0 -10 -4 -18 -10 -18 -5 0 -10 25 -10 56 l0
55 33 -3 c27 -2 32 -7 32 -28z m-2179 5 c9 -8 11 -15 5 -15 -15 0 -14 -57 2
-63 6 -3 2 -6 -10 -6 -20 -1 -23 4 -23 34 0 19 -4 35 -10 35 -5 0 -10 -16 -10
-36 0 -34 -1 -35 -32 -32 -30 3 -33 6 -36 41 -2 21 1 37 7 37 6 0 11 -16 11
-36 0 -45 24 -42 28 4 2 24 8 32 23 32 10 0 19 5 19 10 0 14 9 12 26 -5z m168
-4 c32 -35 -3 -89 -49 -77 -36 9 -50 41 -30 72 19 29 55 31 79 5z m357 12 c5
-61 2 -93 -8 -93 -8 0 -13 14 -13 35 0 19 -5 35 -10 35 -6 0 -5 6 2 15 14 16
28 19 29 8z m1533 -9 c9 -8 16 -21 16 -27 0 -25 -32 -57 -55 -57 -23 0 -55 32
-55 57 0 19 30 43 55 43 13 0 31 -7 39 -16z m296 6 c0 -5 9 -10 19 -10 15 0
21 -8 23 -32 2 -18 8 -33 13 -33 6 0 11 15 13 33 5 46 22 40 22 -8 l0 -39 -55
0 -55 1 0 33 c0 28 -3 33 -25 33 -29 0 -33 -13 -8 -26 21 -12 10 -42 -17 -42
-11 0 -20 4 -20 10 0 5 7 7 15 4 20 -8 19 13 -2 24 -26 15 -8 42 27 42 16 0
30 5 30 10 0 6 5 10 10 10 6 0 10 -4 10 -10z m-5354 -21 c4 -8 9 -8 17 0 14
14 57 14 57 1 0 -5 -8 -10 -17 -10 -15 0 -15 -1 2 -14 11 -8 16 -20 12 -29 -9
-23 -124 -22 -136 1 -14 27 5 62 33 62 14 0 28 -5 32 -11z m528 -11 c16 -26
-4 -53 -40 -53 -26 0 -29 4 -32 33 -4 42 -26 37 -30 -6 -5 -46 -22 -39 -22 8
l0 40 56 -3 c42 -1 60 -7 68 -19z m81 -18 c0 -29 -4 -36 -22 -38 -13 -2 -23
-10 -23 -18 0 -8 -4 -14 -10 -14 -5 0 -10 25 -10 56 l0 55 33 -3 c29 -3 32 -6
32 -38z m155 0 c0 -22 -4 -40 -10 -40 -5 0 -10 18 -10 40 0 22 5 40 10 40 6 0
10 -18 10 -40z m520 0 c0 -22 -4 -40 -10 -40 -5 0 -10 18 -10 40 0 22 5 40 10
40 6 0 10 -18 10 -40z m60 30 c0 -5 -7 -7 -15 -4 -20 8 -19 -13 2 -24 21 -12
10 -42 -17 -42 -11 0 -20 4 -20 10 0 5 7 7 15 4 20 -8 19 13 -2 24 -21 12 -10
42 17 42 11 0 20 -4 20 -10z m120 -30 c0 -22 -4 -40 -10 -40 -5 0 -10 18 -10
40 0 22 5 40 10 40 6 0 10 -18 10 -40z m78 -2 c2 -22 -1 -38 -7 -38 -6 0 -11
16 -11 35 0 19 -4 35 -9 35 -11 0 -21 -25 -21 -51 0 -10 -4 -19 -10 -19 -5 0
-10 18 -10 41 0 39 1 40 33 37 29 -3 32 -6 35 -40z m92 -1 c0 -50 -13 -67 -49
-66 -21 1 -22 2 -6 6 30 7 43 23 19 23 -24 0 -44 18 -44 40 0 24 21 40 52 40
26 0 28 -3 28 -43z m231 27 c11 -14 13 -14 21 0 10 18 58 22 58 5 0 -6 -8 -8
-19 -4 -21 6 -34 -15 -25 -40 4 -10 13 -13 25 -10 11 4 19 2 19 -4 0 -15 -43
-14 -58 1 -8 8 -15 8 -26 -1 -23 -20 -60 -10 -64 17 -2 13 -1 30 2 38 7 19 50
18 67 -2z m737 4 c19 -19 14 -28 -18 -28 -23 0 -28 -4 -23 -16 3 -9 13 -14 24
-11 11 3 19 1 19 -4 0 -13 -44 -11 -58 3 -7 7 -12 19 -12 28 0 9 5 21 12 28 7
7 19 12 28 12 9 0 21 -5 28 -12z m122 0 c0 -5 -7 -8 -15 -5 -8 4 -17 2 -20 -3
-3 -5 4 -12 15 -15 30 -10 21 -39 -13 -43 -15 -2 -27 2 -27 8 0 7 8 9 20 5 11
-3 20 -3 20 1 0 7 -48 54 -56 54 -2 0 -4 -16 -4 -35 0 -19 -4 -35 -10 -35 -5
0 -10 18 -10 39 l0 39 50 0 c28 1 50 -4 50 -10z m622 -20 c2 -18 8 -33 13 -33
6 0 11 15 13 33 5 46 22 40 22 -9 0 -39 -1 -40 -32 -37 -30 3 -33 6 -36 41 -2
20 1 37 7 37 5 0 11 -15 13 -32z m132 16 c9 -24 7 -64 -3 -64 -6 0 -11 15 -13
33 -2 17 -7 32 -13 32 -5 0 -11 -15 -13 -32 -5 -47 -22 -41 -22 7 0 37 2 40
29 40 17 0 31 -6 35 -16z m86 -24 c0 -22 -4 -40 -10 -40 -5 0 -10 18 -10 40 0
22 5 40 10 40 6 0 10 -18 10 -40z m88 -2 c2 -21 -1 -38 -7 -38 -5 0 -11 15
-13 33 -2 17 -7 32 -13 32 -5 0 -11 -15 -13 -32 -5 -47 -22 -41 -22 8 0 39 1
40 33 37 29 -3 32 -6 35 -40z m80 -10 c-3 -53 -3 -53 -38 -55 -19 -1 -28 0
-20 3 45 16 45 17 20 23 -16 4 -26 15 -28 30 -6 37 5 51 38 51 l31 0 -3 -52z
m212 11 c0 -38 -2 -40 -27 -37 -35 4 -45 37 -14 45 12 3 21 10 21 15 0 6 -7 8
-15 4 -8 -3 -15 -1 -15 4 0 6 11 10 25 10 23 0 25 -4 25 -41z m130 1 c0 -22
-4 -40 -10 -40 -5 0 -10 18 -10 40 0 22 5 40 10 40 6 0 10 -18 10 -40z m78 -2
c2 -22 -1 -38 -7 -38 -6 0 -11 16 -11 35 0 19 -4 35 -9 35 -11 0 -21 -25 -21
-51 0 -10 -4 -19 -10 -19 -5 0 -10 18 -10 41 0 39 1 40 33 37 29 -3 32 -6 35
-40z m368 26 c-9 -8 -16 -26 -16 -40 0 -13 -4 -24 -10 -24 -5 0 -10 18 -10 40
0 36 2 40 26 40 23 0 24 -1 10 -16z m74 7 c0 -5 -8 -8 -17 -7 -13 1 -18 -6
-18 -24 0 -18 5 -25 18 -24 9 1 17 -3 17 -8 0 -5 -12 -8 -27 -6 -48 5 -40 78
8 78 11 0 19 -4 19 -9z m158 -34 c3 -38 3 -38 -30 -35 -39 4 -45 28 -10 43 27
12 29 29 2 20 -12 -4 -20 -2 -20 5 0 6 12 10 28 8 23 -3 27 -8 30 -41z m48 27
c-9 -8 -16 -26 -16 -40 0 -13 -4 -24 -10 -24 -5 0 -10 18 -10 40 0 36 2 40 26
40 23 0 24 -1 10 -16z m452 -27 c3 -38 3 -38 -30 -35 -42 4 -51 34 -14 44 14
3 23 10 20 16 -3 5 -12 7 -20 4 -8 -3 -14 -1 -14 5 0 6 12 9 28 7 23 -3 27 -8
30 -41z m270 31 c19 -19 14 -28 -18 -28 -23 0 -28 -4 -23 -16 3 -9 13 -14 24
-11 11 3 19 1 19 -4 0 -13 -44 -11 -58 3 -7 7 -12 19 -12 28 0 9 5 21 12 28 7
7 19 12 28 12 9 0 21 -5 28 -12z m55 5 c-7 -2 -13 -20 -13 -39 0 -19 -4 -34
-10 -34 -5 0 -10 18 -10 40 0 35 3 40 23 39 12 0 16 -3 10 -6z m-5645 -308
c-3 -13 0 -26 5 -28 6 -2 8 -11 4 -20 -7 -18 -57 -24 -57 -7 0 5 6 7 14 4 8
-3 17 -1 21 5 3 6 -1 14 -10 17 -14 6 -14 8 1 19 12 8 14 14 6 19 -7 4 -16 4
-22 1 -5 -3 -10 -1 -10 4 0 6 12 11 26 11 23 0 26 -4 22 -25z m77 -20 c0 -36
-2 -40 -25 -40 -20 0 -26 6 -28 28 -5 42 5 59 30 55 20 -3 23 -9 23 -43z m54
29 c7 9 18 16 24 16 5 0 2 -9 -8 -20 -15 -17 -16 -22 -4 -37 8 -10 19 -21 24
-25 6 -5 3 -8 -6 -8 -9 0 -23 7 -30 16 -12 14 -14 14 -20 -3 -5 -11 -8 1 -8
32 0 31 3 43 8 32 6 -17 8 -17 20 -3z m525 -79 c3 -9 -5 -24 -20 -38 l-26 -22
29 -6 28 -7 -32 -1 c-38 -1 -41 8 -13 34 26 24 26 49 0 42 -11 -3 -18 -1 -14
4 9 15 41 10 48 -6z m76 11 c0 -2 -9 -23 -21 -47 -18 -39 -21 -21 -3 24 4 11
-2 17 -18 20 -17 3 -15 5 10 6 17 0 32 -1 32 -3z m51 -18 c7 12 18 22 23 22 5
0 2 -8 -7 -18 -21 -23 -21 -30 0 -56 14 -17 12 -16 -9 2 l-26 24 -5 -24 c-2
-12 -4 0 -5 27 0 36 2 43 7 25 l7 -25 15 23z m7997 -465 c-22 -6 -23 -19 -2
-27 27 -10 13 -51 -18 -54 -16 -2 -28 2 -28 8 0 7 8 9 19 5 12 -3 21 0 25 11
4 11 0 18 -14 21 -11 3 -20 14 -20 24 0 14 7 19 28 18 16 -1 20 -3 10 -6z m88
-20 c8 -30 -5 -56 -31 -61 -20 -4 -35 14 -35 44 0 46 55 61 66 17z m-8859
-140 c2 -6 -5 -21 -16 -32 -26 -26 -26 -29 2 -34 16 -3 13 -5 -10 -6 -39 -1
-44 19 -11 41 23 15 17 43 -8 34 -8 -3 -14 -1 -14 5 0 14 52 7 57 -8z m68 -28
c0 -36 -2 -40 -25 -40 -20 0 -26 6 -28 28 -5 42 5 59 30 55 20 -3 23 -9 23
-43z m54 29 c7 9 18 16 24 16 5 0 2 -9 -8 -20 -15 -17 -16 -22 -4 -37 8 -10
19 -21 24 -25 6 -5 3 -8 -6 -8 -9 0 -23 7 -30 16 -12 14 -14 14 -20 -3 -5 -11
-8 1 -8 32 0 31 3 43 8 32 6 -17 8 -17 20 -3z m1599 -351 c-1 -44 -2 -45 -5
-10 -2 20 -9 37 -14 37 -6 0 -7 5 -4 10 14 23 25 7 23 -37z m84 12 c2 -19 0
-41 -4 -48 -6 -9 -8 -9 -8 1 0 6 -9 12 -21 12 -11 0 -19 3 -17 8 36 74 44 78
50 27z m57 19 c7 9 18 16 24 16 6 0 -1 -12 -15 -27 -14 -16 -28 -37 -31 -48
-3 -11 -5 3 -5 30 0 31 2 43 7 32 6 -17 8 -17 20 -3z m26 -72 c-6 -7 -35 18
-35 31 0 5 9 2 20 -8 11 -10 18 -20 15 -23z m-63 -224 c2 -73 2 -291 0 -483
l-2 -350 -40 3 -40 4 0 479 0 479 39 0 40 0 3 -132z m-1842 -123 c0 -25 -4
-45 -10 -45 -5 0 -10 16 -10 35 0 21 -5 35 -12 35 -9 0 -8 4 2 10 26 17 30 11
30 -35z m85 0 c0 -36 -2 -40 -25 -40 -20 0 -26 6 -28 28 -5 42 5 59 30 55 20
-3 23 -9 23 -43z m54 29 c7 9 18 16 24 16 5 0 2 -9 -8 -20 -15 -17 -16 -22 -4
-37 8 -10 19 -21 24 -25 6 -5 3 -8 -6 -8 -9 0 -23 7 -30 16 -12 14 -14 14 -20
-3 -5 -11 -8 1 -8 32 0 31 3 43 8 32 6 -17 8 -17 20 -3z m8737 -91 c8 -30 -5
-56 -31 -61 -20 -4 -35 14 -35 44 0 46 55 61 66 17z m453 -105 l30 -41 -20
-18 c-37 -32 -81 9 -54 49 8 11 12 27 9 36 -11 28 3 17 35 -26z m3205 1 c38
-56 28 -71 -11 -16 -18 24 -29 47 -26 51 9 9 8 10 37 -35z m-2137 -1 c0 -13 3
-32 7 -43 6 -15 1 -13 -19 9 -24 27 -25 29 -8 42 10 7 19 14 19 14 1 0 2 -10
1 -22z m535 0 c-7 -7 -6 -18 5 -34 9 -15 11 -24 4 -24 -6 0 -18 11 -27 25 -13
20 -14 28 -4 40 7 8 17 12 22 9 6 -4 6 -10 0 -16z m1065 0 c0 -13 3 -32 7 -43
6 -15 1 -13 -19 9 -24 27 -25 29 -8 42 10 7 19 14 19 14 1 0 2 -10 1 -22z
m-2125 -15 c10 -9 18 -23 18 -32 -1 -12 -5 -11 -19 7 -22 25 -46 30 -37 7 17
-43 15 -48 -8 -21 -23 27 -23 31 -8 43 23 17 32 16 54 -4z m1612 -7 c9 -14 12
-27 6 -31 -5 -3 -14 4 -20 15 -6 11 -17 20 -25 20 -19 0 -19 -14 0 -30 8 -7
15 -16 15 -21 0 -17 -18 -9 -35 17 -13 20 -14 28 -4 40 18 21 45 17 63 -10z
m-2219 -23 c29 -43 33 -63 8 -40 -25 22 -56 77 -44 77 6 0 22 -17 36 -37z
m3254 11 c20 -25 20 -27 4 -40 -10 -7 -23 -14 -29 -14 -7 0 -15 -7 -18 -16 -5
-13 -10 -12 -35 8 -27 21 -42 58 -23 58 9 0 34 -16 32 -21 -4 -10 13 -38 21
-34 4 3 6 12 3 19 -3 8 -1 17 5 21 6 3 11 11 11 17 0 7 -6 6 -15 -2 -18 -15
-20 1 -3 18 17 17 24 15 47 -14z m-2151 4 c10 -10 8 -16 -10 -30 -19 -15 -20
-18 -5 -18 9 0 17 5 17 10 0 6 5 10 10 10 17 0 11 -19 -11 -30 -16 -9 -24 -8
-38 4 -29 26 -46 20 -27 -9 18 -28 20 -35 7 -35 -5 0 -16 12 -26 26 -13 20
-14 28 -4 40 6 8 14 12 17 9 3 -3 11 4 19 15 16 23 34 25 51 8z m530 0 c10
-10 8 -16 -10 -30 -17 -13 -19 -18 -7 -18 8 0 21 6 28 13 11 10 13 9 9 -3 -2
-8 -14 -19 -26 -25 -12 -5 -22 -13 -22 -17 0 -15 -30 -8 -50 12 -26 26 -26 50
-1 43 13 -3 23 2 30 16 13 24 31 27 49 9z m1070 0 c10 -10 8 -16 -10 -30 -19
-15 -20 -18 -5 -18 9 0 17 5 17 10 0 6 5 10 10 10 17 0 11 -19 -11 -30 -16 -9
-25 -8 -40 6 -22 20 -24 35 -7 52 15 15 31 15 46 0z m-2152 -34 c15 -22 15
-27 3 -35 -37 -23 -67 6 -39 39 7 9 7 9 -2 2 -19 -15 -32 -12 -18 5 18 22 37
18 56 -11z m1596 9 c23 -21 23 -35 0 -50 -28 -17 -51 0 -34 27 16 27 15 35 -3
20 -14 -12 -22 0 -8 13 11 11 25 8 45 -10z m-2167 -14 c4 -5 -1 -19 -11 -30
-18 -20 -6 -27 14 -7 9 9 12 9 12 0 0 -6 -8 -16 -19 -21 -14 -8 -22 -6 -35 8
-19 21 -20 33 -4 49 15 15 35 15 43 1z m2676 -21 c16 -30 2 -34 -20 -7 -22 26
-28 11 -10 -23 15 -28 2 -36 -17 -10 -17 25 -39 30 -30 7 17 -43 16 -48 -7
-21 -26 30 -46 21 -27 -13 17 -33 11 -47 -10 -21 -11 14 -19 30 -17 37 3 17
100 80 115 75 7 -2 17 -13 23 -24z m-2739 -17 c15 -21 25 -41 21 -45 -3 -3
-13 3 -21 15 l-14 20 -15 -21 c-12 -16 -12 -24 -3 -35 8 -10 9 -15 2 -15 -6 0
-23 16 -39 36 -26 35 -27 37 -8 50 11 7 25 18 30 23 15 15 18 14 47 -28z m570
12 c10 -9 18 -23 18 -32 0 -12 -6 -9 -20 9 -22 29 -40 19 -21 -11 18 -31 3
-38 -19 -9 -21 28 -37 22 -21 -8 18 -33 12 -49 -8 -23 -25 32 -47 19 -25 -15
10 -14 12 -24 5 -24 -6 0 -18 11 -27 25 -13 20 -14 28 -4 40 7 9 15 14 17 12
2 -3 18 9 34 24 36 33 46 35 71 12z m1611 -7 c21 -31 10 -42 -13 -13 -22 27
-36 17 -20 -13 16 -30 3 -39 -16 -12 -21 30 -38 17 -18 -14 10 -14 12 -24 5
-24 -6 0 -18 12 -28 26 -16 25 -16 27 3 40 10 7 24 18 29 23 17 17 42 12 58
-13z m1061 8 c9 -8 16 -19 16 -24 0 -13 -30 -40 -44 -40 -17 0 -36 21 -36 40
0 19 19 40 36 40 7 0 20 -7 28 -16z m-2155 -8 c10 -11 8 -16 -6 -24 -10 -6
-15 -14 -11 -18 4 -4 14 -1 23 6 10 8 15 9 15 2 0 -6 -9 -16 -20 -22 -28 -15
-65 22 -50 50 13 23 33 26 49 6z m544 -10 c21 -31 8 -44 -14 -14 -21 27 -39
16 -21 -12 24 -39 3 -43 -22 -5 -14 21 -14 28 -4 40 19 21 44 18 61 -9z m1529
12 c-8 -8 -6 -18 9 -40 11 -15 19 -34 17 -40 -3 -7 -15 4 -29 23 -13 20 -30
34 -36 32 -19 -7 -16 8 5 23 22 17 51 19 34 2z m-2168 -32 c20 8 56 -22 55
-45 0 -12 -4 -10 -16 7 -8 12 -22 22 -29 22 -18 0 -17 -10 1 -34 12 -16 12
-21 0 -32 -19 -19 -31 -18 -55 6 -26 26 -26 50 0 43 11 -3 17 -9 14 -15 -7
-12 16 -39 27 -32 5 3 -2 22 -16 42 -27 40 -33 61 -11 43 7 -6 21 -8 30 -5z
m579 -24 c16 -28 16 -29 -9 -43 -24 -12 -28 -12 -45 10 -28 34 -23 49 6 21 31
-29 44 -20 21 15 -12 19 -13 25 -3 25 7 0 20 -13 30 -28z m487 3 c-10 -13 -9
-15 8 -15 12 0 24 -5 28 -11 8 -13 -22 -46 -33 -35 -4 4 -1 11 7 16 12 8 10
10 -7 10 -12 0 -24 4 -27 9 -9 15 5 41 21 41 13 0 13 -3 3 -15z m-565 -32 c29
-44 33 -63 6 -39 -25 23 -55 11 -40 -16 9 -16 5 -40 -4 -27 -2 2 -15 21 -30
41 -16 22 -23 39 -17 43 6 3 13 -1 16 -9 7 -18 13 -19 33 -7 10 7 11 13 2 30
-20 36 6 24 34 -16z m529 4 c31 -41 32 -49 6 -64 -20 -13 -50 -8 -50 8 0 5 -7
9 -16 9 -15 0 -15 -2 0 -25 18 -28 20 -35 7 -35 -5 0 -16 12 -26 26 -13 20
-14 28 -4 40 6 8 14 12 17 10 2 -3 13 5 22 17 13 16 15 26 8 35 -7 8 -7 12 0
12 6 0 22 -15 36 -33z m586 -31 c-17 -22 -50 -20 -50 2 0 10 6 24 13 32 10 12
9 12 -6 1 -9 -8 -21 -11 -25 -7 -4 4 2 14 13 22 17 13 22 12 44 -10 20 -21 22
-27 11 -40z m-98 32 c-20 -20 -13 -31 15 -23 23 5 25 4 14 -9 -7 -8 -10 -24
-6 -36 10 -32 -8 -23 -37 20 l-27 38 22 15 c25 17 37 13 19 -5z m-2074 0 c10
-10 8 -16 -10 -30 -17 -13 -19 -18 -7 -18 8 0 21 6 28 13 11 10 13 9 9 -2 -2
-8 -12 -19 -22 -25 -14 -9 -21 -6 -36 12 -31 38 4 84 38 50z m-540 -10 c17
-17 15 -45 -4 -56 -11 -6 -13 -11 -5 -16 13 -8 15 -26 2 -26 -4 0 -20 18 -35
40 -22 33 -24 43 -14 55 16 18 40 19 56 3z m1046 -33 c15 -23 15 -25 -6 -39
-20 -14 -24 -14 -37 -1 -12 12 -12 17 -3 27 17 17 15 33 -3 18 -8 -7 -15 -8
-15 -3 0 31 43 30 64 -2z m-561 -3 c9 -8 17 -22 17 -31 -1 -12 -5 -11 -20 7
-26 31 -45 19 -24 -14 9 -13 12 -24 6 -24 -9 0 -35 31 -55 66 -10 17 55 14 76
-4z m-7249 -7 c3 -9 -5 -24 -20 -38 l-26 -22 29 -6 28 -7 -32 -1 c-38 -1 -41
8 -13 34 26 24 26 49 0 42 -11 -3 -18 -1 -14 4 9 15 41 10 48 -6z m55 -1 c7 9
18 16 24 16 6 0 -1 -12 -15 -27 -14 -16 -28 -37 -31 -48 -3 -11 -5 3 -5 30 0
31 2 43 7 32 6 -17 8 -17 20 -3z m6645 -3 c14 -15 15 -24 6 -40 -13 -24 -42
-27 -60 -6 -20 24 -31 6 -14 -21 10 -14 12 -24 5 -24 -15 0 -44 47 -36 60 3 5
10 10 16 10 5 0 18 9 29 20 25 25 32 25 54 1z m998 -1 c-18 -17 -20 -25 -11
-41 10 -20 59 -24 49 -4 -2 6 -10 9 -17 7 -19 -4 -16 15 3 22 10 4 22 -1 30
-11 10 -15 10 -21 -3 -35 -42 -47 -113 10 -77 61 8 11 22 21 31 21 14 0 13 -4
-5 -20z m1621 -19 c-3 -10 0 -22 6 -25 6 -4 11 -15 11 -24 -1 -13 -7 -9 -25
13 -18 21 -21 32 -13 42 15 19 27 16 21 -6z m-2153 -6 c-10 -13 -9 -15 8 -15
12 0 24 -5 28 -11 8 -13 -22 -46 -33 -35 -4 4 -1 11 7 16 12 8 10 10 -7 10
-12 0 -24 4 -27 9 -9 15 5 41 21 41 13 0 13 -3 3 -15z m1629 1 c10 -11 8 -16
-6 -24 -10 -6 -15 -14 -11 -18 4 -4 14 -1 23 6 10 8 15 9 15 2 0 -6 -9 -16
-20 -22 -28 -15 -65 22 -50 50 13 23 33 26 49 6z m-1679 0 c0 -3 -4 -8 -10
-11 -5 -3 -10 -1 -10 4 0 6 5 11 10 11 6 0 10 -2 10 -4z m1615 -33 c29 -44 33
-63 7 -40 -25 23 -52 6 -34 -23 23 -38 -11 -23 -36 16 -23 36 -23 62 1 31 10
-14 15 -14 30 -2 12 8 14 15 8 20 -11 6 -16 35 -6 35 2 0 16 -17 30 -37z
m-8650 -11 c-6 -7 -35 18 -35 31 0 5 9 2 20 -8 11 -10 18 -20 15 -23z m6477
18 c-18 -17 -20 -25 -12 -40 12 -22 40 -26 58 -8 7 7 12 8 12 2 0 -30 -58 -46
-77 -21 -27 35 -13 87 24 87 14 0 13 -4 -5 -20z m528 1 c0 -5 -5 -11 -12 -13
-6 -2 -8 -10 -4 -17 6 -9 11 -9 21 -1 8 7 16 7 19 2 3 -6 -2 -13 -11 -16 -12
-5 -14 -9 -5 -18 14 -14 16 -28 3 -28 -4 0 -20 17 -34 38 -23 35 -23 39 -8 50
20 14 31 15 31 3z m70 -51 c0 -9 -10 -3 -24 15 -13 16 -22 34 -19 39 7 11 42
-34 43 -54z m2144 35 c15 -23 15 -25 -6 -39 -20 -14 -24 -14 -37 -1 -12 12
-12 17 -3 27 17 17 15 33 -3 18 -8 -7 -15 -8 -15 -3 0 31 43 30 64 -2z m-8874
-40 c0 -25 -4 -45 -10 -45 -5 0 -10 16 -10 35 0 21 -5 35 -12 35 -9 0 -8 4 2
10 26 17 30 11 30 -35z m68 27 c25 22 26 22 8 1 -16 -20 -17 -25 -5 -40 8 -10
19 -21 24 -25 6 -5 6 -8 -1 -8 -6 0 -19 9 -30 21 l-19 21 -6 -24 c-5 -15 -7
-6 -7 27 1 28 3 39 5 27 l5 -24 26 24z m8676 -1 c3 -4 16 -6 30 -4 17 4 28 -2
40 -18 20 -29 12 -38 -14 -14 -25 22 -36 14 -20 -15 29 -54 -22 -10 -54 48 -8
13 10 17 18 3z m-7649 -66 c0 -31 -4 -41 -19 -43 -32 -7 -50 50 -24 76 24 24
43 9 43 -33z m56 23 c7 12 18 22 23 22 5 0 2 -8 -7 -18 -21 -23 -21 -30 0 -56
14 -17 12 -16 -9 2 l-26 24 -5 -24 c-2 -12 -4 0 -5 27 0 36 2 43 7 25 l7 -25
15 23z m477 -1 c7 -33 -7 -67 -28 -67 -22 0 -34 31 -26 66 5 19 12 25 29 22
12 -2 23 -11 25 -21z m51 7 c7 9 18 16 24 16 6 0 -1 -12 -15 -27 -14 -16 -28
-37 -31 -48 -3 -11 -5 3 -5 30 0 31 2 43 7 32 6 -17 8 -17 20 -3z m656 -39 c0
-31 -4 -41 -19 -43 -32 -7 -50 50 -24 76 24 24 43 9 43 -33z m56 23 c7 12 18
22 23 22 5 0 2 -8 -7 -18 -21 -23 -21 -30 0 -56 14 -17 12 -16 -9 2 l-26 24
-5 -24 c-2 -12 -4 0 -5 27 0 36 2 43 7 25 l7 -25 15 23z m657 10 c28 -28 2
-88 -33 -74 -15 5 -22 66 -8 79 10 11 28 8 41 -5z m61 -4 c7 9 18 16 24 16 6
0 1 -10 -11 -23 l-22 -23 22 -22 c13 -12 17 -22 11 -22 -6 0 -17 7 -24 16 -12
14 -14 14 -20 -3 -5 -11 -8 1 -8 32 0 31 3 43 8 32 6 -17 8 -17 20 -3z m656
-29 c0 -31 -4 -41 -19 -43 -32 -7 -50 50 -24 76 24 24 43 9 43 -33z m56 23 c7
12 18 22 23 22 5 0 2 -8 -7 -18 -21 -23 -21 -30 0 -56 14 -17 12 -16 -9 2
l-26 24 -5 -24 c-2 -12 -4 0 -5 27 0 36 2 43 7 25 l7 -25 15 23z m844 -23 c0
-31 -4 -41 -19 -43 -32 -7 -50 50 -24 76 24 24 43 9 43 -33z m56 23 c7 12 18
22 23 22 5 0 2 -8 -7 -18 -21 -23 -21 -30 0 -56 14 -17 12 -16 -9 2 l-26 24
-5 -24 c-2 -12 -4 0 -5 27 0 36 2 43 7 25 l7 -25 15 23z m1346 0 c0 -13 3 -32
7 -43 6 -15 2 -13 -18 8 -21 23 -24 31 -13 42 17 20 25 18 24 -7z m2673 13 c0
-5 -5 -11 -12 -13 -7 -3 -9 -12 -5 -22 5 -12 13 -15 27 -11 11 3 20 2 20 -4 0
-5 -9 -13 -20 -16 -39 -12 -66 35 -38 63 14 14 28 16 28 3z m-53 -43 c0 -13 3
-32 7 -43 6 -15 1 -13 -19 9 -24 27 -25 29 -8 42 10 7 19 14 19 14 1 0 2 -10
1 -22z m-6982 -26 c-6 -7 -35 18 -35 31 0 5 9 2 20 -8 11 -10 18 -20 15 -23z
m4330 27 c4 -5 -1 -19 -11 -30 -18 -20 -6 -27 14 -7 9 9 12 9 12 0 0 -6 -8
-16 -19 -21 -14 -8 -22 -6 -35 8 -19 21 -20 33 -4 49 15 15 35 15 43 1z
m-6403 -71 l3 -73 -40 1 -40 1 -3 72 -3 71 40 0 39 0 4 -72z m9027 30 c14 -24
14 -28 -3 -47 -11 -12 -26 -21 -34 -21 -23 0 -52 30 -52 55 0 50 63 60 89 13z
m-2674 -14 c20 -32 11 -47 -11 -16 -17 25 -39 30 -30 7 20 -49 19 -50 -9 -25
-25 23 -27 23 -23 5 3 -11 9 -28 13 -37 12 -30 -10 -20 -29 13 -16 26 -16 33
-5 40 8 4 23 15 34 23 28 22 40 20 60 -10z m-112 -53 c-3 -10 0 -22 6 -25 6
-4 11 -11 11 -17 0 -17 -18 -9 -35 17 -13 20 -14 28 -5 40 16 18 30 9 23 -15z
m-8528 -36 c0 -36 -2 -40 -25 -40 -20 0 -26 6 -28 28 -5 42 5 59 30 55 20 -3
23 -9 23 -43z m54 29 c7 9 18 16 24 16 5 0 2 -9 -8 -20 -15 -17 -16 -22 -4
-37 8 -10 19 -21 24 -25 6 -5 3 -8 -6 -8 -9 0 -23 7 -30 16 -12 14 -14 14 -20
-3 -5 -11 -8 1 -8 32 0 31 3 43 8 32 6 -17 8 -17 20 -3z m4291 -13 c0 -13 -31
-19 -68 -13 -50 7 -38 22 18 22 28 0 50 -4 50 -9z m708 -3 c-3 -8 -22 -13 -48
-13 -26 0 -45 5 -48 13 -2 8 12 12 48 12 36 0 50 -4 48 -12z m712 2 c0 -5 -9
-10 -19 -10 -11 0 -23 -4 -26 -10 -6 -10 -45 9 -45 22 0 5 20 8 45 8 25 0 45
-4 45 -10z m720 0 c0 -11 -1 -11 -66 -14 -31 -1 -41 1 -37 11 6 15 103 18 103
3z m2019 -16 l21 -27 -20 -14 c-21 -15 -50 -11 -50 6 0 5 5 13 10 16 6 3 10
11 10 17 0 7 -6 6 -15 -2 -18 -15 -20 1 -3 18 17 17 24 15 47 -14z m-93 -3
c-19 -21 -8 -35 21 -24 16 6 16 5 4 -10 -10 -13 -11 -20 -2 -31 7 -8 8 -17 3
-20 -5 -3 -22 13 -37 36 -26 39 -27 42 -9 55 27 19 40 16 20 -6z m-7576 -85
c0 -8 10 -16 23 -18 17 -2 23 -11 25 -35 4 -40 -15 -45 -20 -5 -4 33 -22 32
-26 -1 -3 -20 -9 -24 -40 -24 -20 0 -29 2 -19 4 21 5 22 19 2 27 -24 9 -18 36
8 36 18 0 19 -2 7 -10 -13 -9 -13 -11 0 -20 12 -8 16 -3 18 25 3 33 22 51 22
21z m2640 -1 c0 -8 9 -15 20 -15 16 0 20 -7 20 -35 0 -19 -4 -35 -10 -35 -5 0
-10 14 -10 31 0 17 -4 28 -10 24 -5 -3 -10 -17 -10 -31 0 -13 -4 -24 -10 -24
-5 0 -10 23 -10 50 0 28 5 50 10 50 6 0 10 -7 10 -15z m2367 9 c-3 -3 -12 -4
-19 -1 -8 3 -5 6 6 6 11 1 17 -2 13 -5z m603 -8 c0 -7 9 -16 20 -19 15 -4 20
-14 20 -36 0 -17 -4 -31 -10 -31 -5 0 -10 14 -10 30 0 17 -4 30 -10 30 -5 0
-10 -13 -10 -30 0 -16 -4 -30 -10 -30 -5 0 -10 23 -10 50 0 28 5 50 10 50 6 0
10 -6 10 -14z m670 -1 c0 -8 9 -15 20 -15 17 0 20 -6 19 -37 l-1 -38 -9 33
c-11 36 -29 34 -29 -4 0 -13 -4 -24 -10 -24 -5 0 -10 23 -10 50 0 28 5 50 10
50 6 0 10 -7 10 -15z m-6407 -2 c-27 -5 -31 -32 -5 -34 16 -1 16 -2 0 -6 -10
-2 -18 -13 -18 -24 0 -10 -4 -19 -10 -19 -5 0 -10 20 -10 45 0 44 0 45 33 44
23 -1 26 -3 10 -6z m605 -25 l13 -33 14 33 c20 45 35 40 35 -13 0 -45 -19 -66
-21 -22 l0 22 -9 -22 c-5 -13 -13 -23 -18 -23 -5 0 -14 10 -20 23 l-11 22 0
-22 c-2 -44 -21 -23 -21 22 0 54 20 61 38 13z m185 20 c4 -10 8 -10 15 1 9 12
13 12 27 -2 9 -10 12 -17 6 -17 -15 0 -14 -47 2 -54 6 -3 3 -5 -8 -3 -14 1
-21 11 -23 30 -2 15 -8 27 -14 27 -6 0 -8 -13 -6 -30 3 -19 0 -30 -8 -30 -12
0 -23 57 -16 79 5 15 19 14 25 -1z m499 -20 l12 -33 13 33 c20 49 34 38 15
-13 -9 -25 -21 -45 -27 -45 -6 0 -18 20 -27 45 -10 26 -13 45 -7 45 6 0 15
-15 21 -32z m833 5 c0 -12 4 -25 7 -28 14 -14 -6 -35 -33 -35 -28 0 -29 2 -29
46 0 44 1 45 28 42 20 -2 27 -9 27 -25z m610 17 c4 -6 -3 -9 -16 -7 -11 1 -26
-5 -32 -15 -15 -23 9 -51 36 -42 13 4 17 2 13 -5 -19 -29 -76 -1 -76 38 0 29
60 54 75 31z m246 3 c5 -53 2 -83 -7 -83 -12 0 -23 58 -16 79 4 12 22 15 23 4z
m195 -8 c9 -8 11 -15 5 -15 -15 0 -14 -47 2 -54 6 -3 3 -5 -8 -3 -13 1 -22 12
-26 32 l-7 30 -1 -32 c-1 -29 -4 -33 -30 -33 -29 0 -41 14 -41 51 0 28 18 23
22 -6 4 -33 22 -33 26 0 2 14 10 25 18 25 8 0 14 5 14 10 0 14 9 12 26 -5z
m328 9 c19 -7 21 -55 4 -72 -28 -28 -78 -7 -78 33 0 38 33 55 74 39z m749 -8
c3 -7 1 -18 -4 -23 -5 -5 -3 -17 6 -29 14 -18 14 -18 15 9 0 32 24 46 51 28
15 -8 23 -8 38 0 26 17 51 4 51 -26 0 -31 -25 -43 -52 -26 -13 8 -23 9 -32 2
-21 -17 -79 -10 -98 13 l-17 21 -1 -22 c0 -13 -4 -23 -10 -23 -5 0 -10 20 -10
45 0 43 1 45 29 45 16 0 31 -6 34 -14z m198 7 c5 -53 2 -83 -7 -83 -12 0 -23
58 -16 79 4 12 22 15 23 4z m480 0 c1 -5 2 -24 2 -43 2 -31 -1 -35 -25 -38
-27 -3 -28 -2 -28 42 0 42 2 46 25 46 14 0 25 -3 26 -7z m573 -25 l14 -33 12
33 c18 48 40 42 40 -13 0 -48 -19 -64 -21 -17 l-1 27 -11 -27 c-14 -36 -25
-35 -42 5 l-13 32 -5 -35 c-3 -30 -4 -28 -5 13 -2 55 12 61 32 15z m876 22 c0
-5 -7 -7 -16 -3 -10 4 -22 -1 -30 -12 -18 -24 0 -59 27 -52 10 3 19 1 19 -4 0
-10 -31 -12 -54 -3 -19 7 -21 55 -4 72 14 14 58 16 58 2z m-6330 -45 c0 -19
-4 -35 -10 -35 -5 0 -10 16 -10 35 0 19 5 35 10 35 6 0 10 -16 10 -35z m660 5
c0 -16 5 -30 10 -30 6 0 10 14 10 30 0 17 5 30 10 30 6 0 10 -16 10 -36 0 -33
-2 -35 -27 -32 -23 2 -29 8 -31 36 -2 18 1 32 7 32 6 0 11 -13 11 -30z m205
-5 c0 -25 -4 -30 -24 -30 -32 0 -49 28 -31 50 7 9 23 15 34 13 16 -2 21 -10
21 -33z m83 -2 c4 -38 -15 -45 -20 -8 -4 35 -22 36 -26 3 -5 -41 -22 -34 -22
8 0 34 1 35 33 32 28 -3 32 -7 35 -35z m402 33 c0 -2 3 -11 6 -19 4 -11 -2
-17 -23 -19 l-28 -4 25 -11 25 -12 -27 0 c-31 -1 -47 31 -28 54 11 13 50 21
50 11z m78 -33 c2 -19 -1 -33 -7 -33 -6 0 -11 14 -11 30 0 17 -4 30 -10 30 -5
0 -10 -13 -10 -30 0 -16 -4 -30 -10 -30 -5 0 -10 16 -10 36 0 33 2 35 28 32
22 -2 28 -8 30 -35z m32 2 c0 -19 -4 -35 -10 -35 -5 0 -10 16 -10 35 0 19 5
35 10 35 6 0 10 -16 10 -35z m48 28 c-22 -6 -23 -12 -1 -28 20 -15 9 -35 -20
-34 -17 1 -18 2 -4 6 21 6 22 12 0 28 -20 15 -9 35 20 34 17 -1 18 -2 5 -6z
m87 -13 c8 -27 -12 -52 -39 -48 -21 3 -32 28 -22 54 8 22 54 18 61 -6z m73
-17 c2 -19 -1 -33 -7 -33 -6 0 -11 14 -11 31 0 17 -4 28 -10 24 -5 -3 -10 -17
-10 -31 0 -13 -4 -24 -10 -24 -5 0 -10 16 -10 36 0 33 2 35 28 32 22 -2 28 -8
30 -35z m490 15 c2 -12 -5 -18 -25 -20 -23 -4 -25 -6 -10 -12 17 -8 22 -7 64
18 24 13 21 29 -3 19 -8 -3 -14 0 -14 6 0 6 11 11 25 11 22 0 25 -4 25 -35 l0
-35 -57 3 c-60 2 -74 15 -59 53 8 20 50 14 54 -8z m140 -15 c2 -19 -1 -33 -7
-33 -6 0 -11 14 -11 30 0 17 -4 30 -10 30 -5 0 -10 -13 -10 -30 0 -16 -4 -30
-10 -30 -5 0 -10 16 -10 36 0 33 2 35 28 32 22 -2 28 -8 30 -35z m532 25 c0
-9 3 -9 12 0 7 7 21 11 33 11 16 -1 17 -2 3 -6 -22 -6 -23 -19 -3 -27 27 -10
18 -36 -12 -35 -17 1 -21 3 -10 6 9 2 17 8 17 13 0 13 -23 17 -55 10 l-30 -7
25 -11 25 -11 -27 0 c-31 -1 -47 31 -28 54 15 18 50 20 50 3z m178 -25 c2 -19
-1 -33 -7 -33 -6 0 -11 14 -11 31 0 17 -4 28 -10 24 -5 -3 -10 -17 -10 -31 0
-13 -4 -24 -10 -24 -5 0 -10 16 -10 36 0 33 2 35 28 32 22 -2 28 -8 30 -35z
m540 0 c2 -19 -1 -33 -7 -33 -6 0 -11 14 -11 30 0 17 -4 30 -10 30 -5 0 -10
-13 -10 -30 0 -16 -4 -30 -10 -30 -5 0 -10 16 -10 36 0 33 2 35 28 32 22 -2
28 -8 30 -35z m32 2 c0 -19 -4 -35 -10 -35 -5 0 -10 16 -10 35 0 19 5 35 10
35 6 0 10 -16 10 -35z m75 0 c0 -24 -5 -31 -24 -33 -31 -5 -45 11 -37 43 5 21
12 26 34 23 23 -2 27 -8 27 -33z m83 -2 c4 -38 -15 -45 -20 -8 -4 35 -22 36
-26 3 -5 -41 -22 -34 -22 8 0 34 1 35 33 32 28 -3 32 -7 35 -35z m42 27 c-13
-8 -12 -11 4 -23 23 -17 13 -37 -17 -36 -17 1 -18 2 -4 6 21 6 22 19 2 27 -24
9 -18 36 8 36 18 0 19 -2 7 -10z m678 3 c-22 -6 -23 -12 -1 -28 20 -15 9 -35
-20 -34 -17 1 -18 2 -4 6 21 6 22 12 0 28 -20 15 -9 35 20 34 17 -1 18 -2 5
-6z m500 -15 c2 -13 -3 -18 -17 -18 -28 0 -27 -17 2 -23 15 -4 12 -5 -8 -4
-31 2 -43 23 -31 53 8 21 50 14 54 -8z m44 10 c-7 -7 -12 -22 -12 -35 0 -13
-4 -23 -10 -23 -5 0 -10 16 -10 35 0 29 4 35 22 35 17 0 19 -3 10 -12z m78
-23 c0 -19 -4 -35 -10 -35 -5 0 -10 14 -10 30 0 17 -4 30 -10 30 -5 0 -10 -13
-10 -30 0 -16 -4 -30 -10 -30 -5 0 -10 16 -10 35 0 32 2 35 30 35 28 0 30 -3
30 -35z m70 23 c0 -9 3 -9 12 0 7 7 21 11 33 11 16 -1 17 -2 3 -6 -22 -6 -23
-19 -3 -27 27 -10 18 -36 -12 -35 -17 1 -21 3 -10 6 9 2 17 8 17 13 0 13 -23
17 -55 10 l-30 -7 25 -11 25 -11 -27 0 c-31 -1 -47 31 -28 54 15 18 50 20 50
3z m402 -13 c4 -35 22 -36 26 -2 5 39 22 33 22 -8 0 -32 -3 -35 -29 -35 -29 0
-41 14 -41 51 0 28 18 23 22 -6z m88 15 c-13 -8 -12 -11 4 -23 23 -17 13 -37
-17 -36 -17 1 -18 2 -4 6 21 6 22 19 2 27 -24 9 -18 36 8 36 18 0 19 -2 7 -10z
m132 -2 c-7 -7 -12 -22 -12 -35 0 -13 -4 -23 -10 -23 -5 0 -10 16 -10 35 0 29
4 35 22 35 17 0 19 -3 10 -12z m79 -4 c17 -21 0 -49 -32 -49 -24 0 -36 23 -25
51 7 19 40 18 57 -2z m80 0 c17 -21 0 -49 -32 -49 -24 0 -36 23 -25 51 7 19
40 18 57 -2z m113 0 c9 -24 7 -54 -4 -54 -5 0 -10 11 -10 24 0 14 -4 28 -10
31 -6 4 -10 -7 -10 -24 0 -17 -4 -31 -10 -31 -5 0 -10 11 -10 24 0 14 -4 28
-10 31 -6 4 -10 -7 -10 -24 0 -17 -4 -31 -10 -31 -5 0 -10 16 -10 35 0 35 0
35 44 35 31 0 46 -5 50 -16z m426 12 c0 -2 3 -11 6 -19 4 -11 -2 -17 -23 -19
l-28 -4 25 -11 25 -12 -27 0 c-31 -1 -47 31 -28 54 11 13 50 21 50 11z m129
-18 l8 -23 7 23 c4 12 12 22 17 22 6 0 7 -10 3 -22 -14 -46 -35 -78 -51 -78
-16 0 -15 1 0 13 15 10 16 16 5 45 -14 37 -32 37 -36 -1 -4 -37 -22 -34 -22 3
0 17 -4 30 -10 30 -5 0 -10 -13 -10 -30 0 -16 -4 -30 -10 -30 -5 0 -10 16 -10
35 l0 35 50 0 c43 0 52 -3 59 -22z"/>
<path d="M902 7678 c-17 -17 -15 -43 4 -59 14 -11 18 -10 30 6 8 10 14 24 14
30 0 12 -20 35 -30 35 -3 0 -11 -5 -18 -12z"/>
<path d="M1574 7676 c-11 -28 0 -61 21 -61 16 0 20 7 20 35 0 25 -5 36 -18 38
-9 2 -20 -3 -23 -12z"/>
<path d="M1150 7710 c0 -25 4 -31 18 -28 11 2 17 12 17 28 0 16 -6 26 -17 28
-14 3 -18 -3 -18 -28z"/>
<path d="M570 7671 c-14 -27 4 -64 28 -59 24 5 24 71 0 76 -9 2 -22 -6 -28
-17z"/>
<path d="M734 7676 c-11 -28 0 -61 20 -61 27 0 44 30 30 53 -15 22 -43 27 -50
8z"/>
<path d="M1410 7671 c-14 -27 4 -64 28 -59 12 2 17 13 17 38 0 41 -27 53 -45
21z"/>
<path d="M2214 7676 c-10 -25 0 -61 18 -64 24 -5 42 32 28 58 -12 23 -38 26
-46 6z"/>
<path d="M2935 7680 c-3 -5 3 -10 14 -10 12 0 21 5 21 10 0 6 -6 10 -14 10 -8
0 -18 -4 -21 -10z"/>
<path d="M3083 7643 c-18 -7 -16 -33 2 -33 8 0 15 2 15 4 0 2 3 11 6 20 6 16
0 19 -23 9z"/>
<path d="M540 7350 c0 -5 -13 -10 -30 -10 -27 0 -30 -3 -30 -30 0 -16 -4 -30
-10 -30 -7 0 -10 -288 -10 -845 0 -557 3 -845 10 -845 6 0 10 -27 10 -60 0
-33 -4 -60 -10 -60 -7 0 -10 -287 -10 -840 0 -553 3 -840 10 -840 6 0 10 -13
10 -30 0 -27 3 -30 30 -30 17 0 30 -4 30 -10 0 -7 542 -10 1605 -10 1063 0
1605 3 1605 10 0 6 27 10 60 10 33 0 60 -4 60 -10 0 -7 540 -10 1600 -10 1060
0 1600 3 1600 10 0 6 14 10 30 10 27 0 30 3 30 30 0 17 5 30 10 30 7 0 10 287
10 840 0 553 -3 840 -10 840 -6 0 -10 27 -10 60 0 33 4 60 10 60 7 0 10 263
10 770 l0 770 -120 0 -120 0 0 115 c0 108 -1 115 -20 115 -19 0 -20 -7 -20
-115 l0 -115 -120 0 -120 0 0 115 c0 108 -1 115 -20 115 -19 0 -20 -7 -20
-115 l0 -115 -120 0 -120 0 0 115 0 115 -1240 0 c-820 0 -1240 -3 -1240 -10 0
-6 -27 -10 -60 -10 -33 0 -60 4 -60 10 0 7 -542 10 -1605 10 -1063 0 -1605 -3
-1605 -10z m63 -47 c-21 -4 -23 -10 -23 -64 0 -33 -4 -59 -10 -59 -6 0 -10 26
-10 59 0 54 -2 60 -22 64 -13 2 2 4 32 4 30 0 45 -2 33 -4z m297 -47 c0 -34 5
-56 13 -59 6 -2 9 -8 5 -12 -4 -4 -14 -5 -23 -2 -11 5 -15 22 -15 67 0 33 4
60 10 60 6 0 10 -24 10 -54z m570 34 c0 -11 5 -17 13 -15 24 9 38 -11 35 -51
-3 -36 -6 -39 -35 -42 l-33 -3 0 65 c0 37 4 66 10 66 6 0 10 -9 10 -20z m350
-29 c0 -27 3 -56 6 -65 4 -11 1 -16 -10 -16 -13 0 -16 12 -16 65 0 37 4 65 10
65 6 0 10 -22 10 -49z m-1069 32 c6 -53 2 -113 -7 -113 -12 0 -24 84 -16 108
4 13 21 17 23 5z m310 0 c6 -53 2 -113 -7 -113 -12 0 -24 84 -16 108 4 13 21
17 23 5z m-375 -38 c24 -37 5 -78 -34 -73 -23 2 -28 8 -30 36 -6 59 34 82 64
37z m155 15 c14 -8 19 -21 19 -51 l0 -40 -37 3 c-50 4 -58 33 -14 51 32 14 32
27 -1 27 -11 0 -16 5 -13 10 8 13 21 13 46 0z m169 -46 c0 -24 -4 -44 -10 -44
-5 0 -10 23 -10 51 0 31 4 48 10 44 6 -3 10 -26 10 -51z m148 44 c22 -22 14
-48 -13 -48 -14 0 -25 -4 -25 -10 0 -5 12 -10 26 -10 14 0 23 -4 19 -10 -3 -5
-17 -10 -31 -10 -34 0 -51 43 -29 76 17 26 35 30 53 12z m105 3 c4 0 6 -22 6
-48 l-2 -48 -6 40 c-4 27 -12 41 -23 43 -15 3 -18 -4 -18 -37 0 -23 -4 -41
-10 -41 -5 0 -10 22 -10 48 0 46 1 48 28 46 15 -1 30 -2 35 -3z m91 3 c25 -10
19 -22 -9 -16 -15 2 -25 0 -25 -7 0 -6 6 -11 13 -11 7 0 22 -6 32 -14 16 -12
17 -16 6 -30 -15 -18 -56 -22 -66 -6 -4 6 7 10 25 10 18 0 29 4 25 10 -3 6
-15 10 -26 10 -28 0 -37 30 -14 46 22 16 19 16 39 8z m217 -31 l12 -38 11 32
c13 36 26 53 26 32 0 -34 -39 -114 -56 -117 -16 -3 -16 -1 -4 7 12 8 12 17 4
48 -6 21 -15 46 -19 56 -4 10 -3 17 3 17 6 0 16 -17 23 -37z m187 24 c13 -9
16 -45 6 -71 -3 -9 -17 -16 -30 -16 -15 0 -24 -6 -24 -15 0 -8 -4 -15 -10 -15
-10 0 -15 112 -5 121 7 8 49 5 63 -4z m146 7 c11 -4 16 -19 16 -50 0 -42 -1
-44 -29 -44 -52 0 -62 39 -13 54 31 10 28 26 -5 26 -22 0 -25 2 -13 10 18 11
23 12 44 4z m100 0 c22 -8 10 -23 -13 -17 -13 3 -21 -2 -26 -16 -9 -28 1 -41
31 -41 14 0 22 -4 19 -10 -12 -20 -55 -11 -67 15 -9 19 -8 29 6 50 17 26 24
29 50 19z m94 -6 c22 -22 14 -48 -13 -48 -14 0 -25 -4 -25 -10 0 -5 12 -10 26
-10 14 0 23 -4 19 -10 -3 -5 -17 -10 -31 -10 -34 0 -51 43 -29 76 17 26 35 30
53 12z m96 6 c26 -10 18 -25 -9 -18 -14 3 -25 2 -25 -4 0 -5 12 -13 26 -16 19
-5 25 -12 22 -29 -2 -18 -10 -22 -35 -22 -18 0 -33 5 -33 10 1 6 12 9 25 7 14
-2 25 1 25 7 0 5 -10 11 -22 13 -26 3 -37 36 -16 49 16 10 22 11 42 3z m1116
-479 c0 -33 -4 -45 -15 -45 -10 0 -15 11 -15 35 0 21 -5 35 -12 35 -9 0 -8 4
2 10 30 20 40 11 40 -35z m50 33 c0 -9 3 -9 12 0 7 7 18 12 25 12 8 0 5 -8 -8
-21 l-21 -21 23 -24 c16 -18 19 -24 8 -24 -8 0 -20 5 -27 12 -9 9 -12 9 -12 0
0 -7 -7 -12 -15 -12 -11 0 -15 12 -15 45 0 33 4 45 15 45 8 0 15 -5 15 -12z
m187 -5 c4 -10 -2 -23 -15 -34 -28 -22 -27 -27 1 -32 13 -3 8 -5 -15 -6 -21 0
-38 1 -38 3 0 3 11 17 25 32 28 30 26 41 -7 39 -18 -1 -24 -8 -26 -34 -2 -18
2 -39 9 -47 9 -11 8 -14 -4 -14 -17 0 -27 20 -27 55 0 44 10 55 51 55 28 0 42
-5 46 -17z m104 -4 c16 -31 -4 -71 -33 -67 -25 4 -38 35 -27 66 11 28 45 29
60 1z m64 -24 c0 -36 -3 -40 -27 -43 -16 -2 -28 2 -28 8 0 7 8 9 20 5 14 -5
20 -2 20 9 0 9 -8 17 -17 17 -17 1 -17 2 0 6 9 2 17 11 17 19 0 11 -6 13 -21
9 -15 -5 -19 -4 -14 5 4 6 17 10 28 8 18 -2 22 -10 22 -43z m65 28 c1 -17 1
-17 11 0 14 24 33 23 20 -2 -9 -15 -7 -20 9 -24 24 -6 26 -35 4 -44 -9 -3 -25
-1 -35 5 -13 9 -19 8 -22 -1 -2 -7 -8 -9 -12 -5 -4 4 -2 14 5 23 10 12 10 15
-3 15 -20 0 -30 16 -23 35 8 21 46 19 46 -2z m91 -10 c6 -15 6 -36 1 -51 -15
-45 -27 -34 -27 23 0 60 10 70 26 28z m-723 -10 l-67 -4 -4 -47 -3 -47 -2 53
-2 52 73 -2 72 -2 -67 -3z m430 -55 c-2 -6 -10 -14 -16 -16 -7 -2 -10 2 -6 12
7 18 28 22 22 4z m-598 -342 l0 -243 -77 -6 c-230 -18 -462 -177 -577 -396
-76 -144 -104 -376 -62 -515 9 -32 14 -62 9 -66 -4 -4 -108 -41 -230 -83
l-221 -76 -21 77 c-73 276 -50 571 66 827 79 175 233 369 373 471 208 152 466
246 698 253 l42 1 0 -244z m2870 -46 l0 -70 -45 0 c-29 0 -47 5 -53 16 -8 14
-10 14 -21 0 -16 -19 -62 -21 -79 -4 -7 7 -12 21 -12 33 0 12 5 26 12 33 17
17 63 15 79 -4 11 -14 13 -14 21 0 5 9 20 16 33 16 20 0 25 5 25 25 0 18 5 25
20 25 18 0 20 -7 20 -70z m315 61 c3 -5 1 -13 -5 -16 -15 -9 -43 3 -35 15 8
13 32 13 40 1z m425 -61 c0 -63 -2 -70 -20 -70 -17 0 -20 7 -20 41 0 37 -1 39
-16 25 -8 -9 -24 -16 -35 -16 -14 0 -19 -7 -19 -25 0 -18 -5 -25 -20 -25 -18
0 -20 7 -20 65 l0 65 43 0 c24 0 48 -5 55 -12 9 -9 12 -8 12 5 0 10 8 17 20
17 18 0 20 -7 20 -70z m-1028 40 c9 -13 24 -20 45 -20 34 0 44 -14 18 -24 -9
-3 -15 -18 -15 -36 0 -23 -4 -30 -20 -30 -17 0 -20 7 -20 41 0 37 -1 39 -16
25 -8 -9 -24 -16 -35 -16 -14 0 -19 -7 -19 -25 0 -18 -5 -25 -20 -25 -18 0
-20 7 -20 65 l0 65 45 0 c34 0 48 -5 57 -20z m538 -5 c0 -10 10 -15 30 -15 29
0 30 -2 30 -46 l0 -45 -47 3 c-45 3 -48 5 -53 33 -4 21 -11 31 -27 32 -21 2
-38 -21 -27 -38 3 -6 14 -7 25 -4 13 4 19 2 19 -9 0 -21 -53 -21 -74 0 -15 14
-16 14 -16 -1 0 -13 -9 -16 -47 -13 l-48 3 -3 43 c-3 37 -1 42 17 42 17 0 21
-6 21 -36 0 -21 4 -33 10 -29 6 3 10 19 10 36 0 22 5 29 20 29 12 0 20 -7 20
-17 0 -15 1 -15 18 0 10 10 32 17 49 17 18 0 33 6 37 15 3 8 12 15 21 15 8 0
15 -7 15 -15z m168 -27 c9 -9 12 -9 12 1 0 8 14 11 48 9 l47 -3 3 -42 c3 -38
1 -43 -17 -43 -17 0 -21 6 -21 36 0 21 -4 33 -10 29 -5 -3 -10 -19 -10 -36 0
-22 -5 -29 -20 -29 -11 0 -20 5 -20 12 0 9 -3 9 -12 0 -7 -7 -26 -12 -43 -12
-36 0 -55 15 -55 45 0 30 19 45 55 45 17 0 36 -5 43 -12z m420 -4 c8 -14 10
-14 21 0 16 19 71 22 71 4 0 -9 3 -9 12 0 15 15 65 16 74 1 4 -8 9 -8 17 0 17
17 67 14 67 -5 0 -11 -6 -14 -22 -9 -19 5 -18 3 5 -10 53 -30 25 -55 -63 -55
-38 0 -71 5 -78 12 -9 9 -12 9 -12 0 0 -17 -56 -15 -74 4 -15 14 -16 14 -16
-1 0 -13 -9 -16 -42 -13 -34 2 -44 7 -46 23 -2 15 5 24 25 32 26 10 26 11 6
12 -37 2 -26 21 12 21 20 0 37 -6 43 -16z m-5728 -149 c0 -25 -4 -45 -10 -45
-5 0 -10 16 -10 35 0 19 -5 35 -11 35 -5 0 -7 5 -4 10 3 6 13 10 21 10 10 0
14 -12 14 -45z m82 10 c4 -37 -9 -71 -19 -47 -2 6 -14 12 -25 12 -11 0 -18 3
-16 8 36 74 53 82 60 27z m38 18 c1 -17 1 -17 11 0 5 9 17 17 26 17 14 0 13
-4 -5 -23 l-22 -23 22 -22 c15 -14 18 -22 9 -22 -8 0 -20 8 -27 18 -13 16 -13
16 -14 0 0 -10 -4 -18 -10 -18 -5 0 -10 20 -10 45 0 25 5 45 10 45 6 0 10 -8
10 -17z m185 -28 c0 -36 -3 -40 -27 -43 -16 -2 -28 2 -28 8 0 7 8 9 20 5 14
-5 20 -2 20 9 0 9 -8 17 -17 17 -17 1 -17 2 0 6 26 7 21 31 -8 29 -29 -1 -40
-32 -25 -71 8 -20 7 -26 -2 -23 -21 7 -33 54 -20 82 9 20 17 24 49 23 37 -2
38 -3 38 -42z m83 22 c7 -37 -7 -67 -33 -67 -27 0 -40 28 -31 66 5 20 12 25
34 22 16 -2 28 -10 30 -21z m99 6 c4 -10 -2 -23 -15 -34 -28 -22 -27 -27 1
-32 12 -2 3 -5 -20 -6 -24 0 -43 -5 -43 -11 0 -5 -4 -10 -10 -10 -17 0 -11 20
7 27 24 9 64 54 57 64 -2 4 -11 6 -19 2 -8 -3 -15 0 -15 6 0 18 50 13 57 -6z
m71 5 c9 -9 12 -9 12 0 0 7 8 12 18 12 10 0 23 -5 30 -12 9 -9 12 -9 12 0 0 7
7 12 17 12 14 0 14 -2 -2 -20 -18 -19 -17 -20 3 -20 15 0 22 -6 22 -20 0 -25
-25 -37 -44 -21 -10 8 -16 9 -21 1 -12 -19 -26 -11 -16 9 9 15 7 20 -9 24 -14
3 -20 -1 -22 -17 -2 -15 -11 -22 -33 -23 -30 -3 -30 -3 -5 8 l25 11 -22 9
c-22 8 -31 38 -16 52 10 11 38 8 51 -5z m146 -4 c15 -38 3 -94 -20 -94 -11 0
-11 5 -2 26 9 19 9 33 1 55 -9 23 -8 29 2 29 7 0 16 -7 19 -16z m237 -45 c49
-35 73 -57 49 -44 -8 4 -31 20 -50 34 -28 21 -51 27 -110 32 l-75 6 71 1 c65
2 75 -1 115 -29z m4409 -119 c0 -56 -3 -70 -15 -70 -12 0 -15 14 -15 70 0 56
3 70 15 70 12 0 15 -14 15 -70z m100 -1 l0 -70 -42 3 c-39 3 -43 6 -46 31 -4
33 13 57 39 57 14 0 19 7 19 25 0 16 6 25 15 25 12 0 15 -15 15 -71z m-690 50
c0 -6 -9 -8 -21 -4 -26 9 -59 -20 -59 -51 0 -32 28 -57 56 -50 14 4 24 2 24
-4 0 -16 -67 -12 -84 6 -21 20 -20 73 1 96 17 19 83 25 83 7z m388 4 c-22 -3
-28 -10 -28 -29 0 -19 5 -24 28 -25 l27 -2 -27 -4 c-23 -4 -28 -9 -28 -34 0
-16 -4 -29 -10 -29 -6 0 -10 28 -10 65 l0 65 38 -1 c30 -2 32 -3 10 -6z m62
-3 c0 -5 -7 -10 -15 -10 -8 0 -15 5 -15 10 0 6 7 10 15 10 8 0 15 -4 15 -10z
m-392 -41 c-12 -6 -18 -22 -18 -44 0 -24 -5 -35 -15 -35 -11 0 -15 12 -15 45
0 44 1 45 33 45 26 -1 29 -2 15 -11z m103 -10 c17 -33 -3 -69 -39 -69 -33 0
-52 16 -52 45 0 29 19 45 52 45 18 0 31 -7 39 -21z m107 -12 c4 -35 -13 -57
-44 -57 -17 0 -24 -6 -24 -20 0 -11 -4 -20 -10 -20 -6 0 -10 29 -10 66 l0 65
43 -3 c38 -3 42 -6 45 -31z m182 -12 c0 -33 -4 -45 -15 -45 -11 0 -15 12 -15
45 0 33 4 45 15 45 11 0 15 -12 15 -45z m88 33 c23 -23 13 -38 -24 -38 -32 0
-35 -2 -24 -15 7 -9 21 -13 31 -10 11 4 19 2 19 -4 0 -15 -53 -14 -68 1 -7 7
-12 21 -12 33 0 12 5 26 12 33 7 7 21 12 33 12 12 0 26 -5 33 -12z m-408 -283
c0 -20 5 -25 25 -25 27 0 45 -25 45 -64 0 -16 -6 -26 -15 -26 -10 0 -15 10
-15 33 0 19 -3 37 -7 40 -12 13 -33 -15 -33 -44 0 -16 -4 -29 -10 -29 -6 0
-10 30 -10 70 0 40 4 70 10 70 6 0 10 -11 10 -25z m720 -12 c0 -29 3 -34 12
-25 7 7 19 12 27 12 11 0 9 -6 -8 -24 l-22 -24 27 -21 c23 -18 24 -21 7 -21
-10 0 -24 5 -31 12 -9 9 -12 9 -12 0 0 -7 -7 -12 -15 -12 -12 0 -15 14 -15 70
0 56 3 70 15 70 11 0 15 -11 15 -37z m-892 20 c-22 -3 -28 -10 -28 -29 0 -19
5 -24 28 -25 l27 -2 -27 -4 c-23 -4 -28 -9 -28 -34 0 -19 -5 -29 -15 -29 -12
0 -15 14 -15 65 l0 65 43 -1 c29 -2 34 -3 15 -6z m62 -3 c0 -5 -7 -10 -15 -10
-8 0 -15 5 -15 10 0 6 7 10 15 10 8 0 15 -4 15 -10z m220 0 c0 -5 -7 -10 -15
-10 -8 0 -15 5 -15 10 0 6 7 10 15 10 8 0 15 -4 15 -10z m364 -6 c9 -8 16 -31
16 -49 0 -41 -29 -65 -77 -65 l-33 0 0 65 0 65 39 0 c23 0 46 -7 55 -16z
m-584 -69 c0 -33 -4 -45 -15 -45 -11 0 -15 12 -15 45 0 33 4 45 15 45 11 0 15
-12 15 -45z m70 35 c0 -5 -6 -7 -14 -4 -26 10 -27 -16 -1 -28 35 -16 28 -42
-13 -46 -19 -2 -32 1 -32 8 0 7 8 9 20 5 27 -8 26 9 -2 27 -28 19 -18 48 17
48 14 0 25 -4 25 -10z m150 -35 c0 -33 -4 -45 -15 -45 -11 0 -15 12 -15 45 0
33 4 45 15 45 11 0 15 -12 15 -45z m98 -2 c2 -34 0 -43 -12 -43 -12 0 -16 11
-16 41 0 52 -24 48 -28 -4 -2 -24 -8 -37 -18 -37 -10 0 -14 13 -14 46 l0 45
43 -3 c42 -3 42 -3 45 -45z m102 -6 c0 -29 -5 -58 -12 -65 -15 -15 -64 -16
-73 -2 -4 7 2 9 17 5 16 -4 29 -1 37 9 12 14 10 16 -11 16 -30 0 -48 17 -48
45 0 30 19 45 57 45 l33 0 0 -53z m278 36 c9 -16 11 -16 27 0 18 18 65 23 65
7 0 -5 -10 -9 -22 -7 -19 2 -23 -3 -23 -28 0 -25 4 -30 23 -28 12 2 22 -2 22
-7 0 -17 -58 -11 -70 8 -10 16 -10 16 -20 0 -13 -21 -60 -24 -78 -6 -7 7 -12
21 -12 33 0 12 5 26 12 33 18 18 66 15 76 -5z m-518 -267 c0 -19 6 -25 28 -28
24 -3 27 -7 30 -45 2 -26 -1 -43 -7 -43 -6 0 -11 15 -11 34 0 38 -17 57 -31
35 -5 -8 -9 -26 -9 -41 0 -16 -4 -28 -10 -28 -6 0 -10 30 -10 70 0 40 4 70 10
70 6 0 10 -11 10 -24z m-350 -6 c24 -24 25 -47 3 -72 -18 -20 -63 -24 -81 -6
-17 17 -15 64 4 82 21 22 50 20 74 -4z m160 10 c0 -6 -11 -8 -25 -4 -50 13
-86 -53 -49 -90 8 -9 22 -16 30 -16 17 0 19 46 2 53 -7 3 0 6 15 6 26 1 28 -2
25 -31 -3 -30 -6 -33 -39 -36 -45 -4 -69 17 -69 60 0 44 25 68 72 68 21 0 38
-5 38 -10z m580 -20 c0 -25 4 -30 25 -30 21 0 25 5 25 30 0 20 5 30 15 30 12
0 15 -14 15 -65 0 -51 -3 -65 -15 -65 -10 0 -15 10 -15 30 0 25 -4 30 -25 30
-21 0 -25 -5 -25 -30 0 -20 -5 -30 -15 -30 -12 0 -15 14 -15 65 0 51 3 65 15
65 10 0 15 -10 15 -30z m-440 5 c0 -8 6 -15 13 -16 10 0 10 -2 0 -6 -7 -2 -13
-20 -13 -38 0 -18 6 -36 13 -39 6 -3 1 -4 -13 -3 -21 2 -26 8 -30 42 -3 22 -4
48 -2 58 5 21 32 23 32 2z m670 0 c0 -8 6 -15 13 -16 10 0 10 -2 0 -6 -7 -2
-13 -20 -13 -38 0 -18 6 -36 13 -39 6 -3 1 -4 -13 -3 -21 2 -26 8 -30 42 -3
22 -4 48 -2 58 5 21 32 23 32 2z m-722 -63 l3 -43 -38 3 c-30 2 -39 7 -41 25
-3 17 3 24 22 29 14 3 26 10 26 16 0 5 -9 6 -20 3 -12 -4 -20 -2 -20 5 0 7 13
10 33 8 30 -3 32 -6 35 -46z m250 36 c22 -22 13 -38 -19 -38 -20 0 -29 -4 -26
-12 2 -7 14 -13 26 -12 11 0 21 -3 21 -8 0 -16 -62 -4 -73 14 -16 25 7 68 36
68 13 0 28 -5 35 -12z m152 1 c0 -6 -9 -8 -19 -4 -30 9 -35 -14 -6 -25 37 -14
30 -44 -13 -48 -19 -2 -32 1 -32 8 0 7 8 9 20 5 14 -5 20 -2 20 9 0 9 -7 16
-16 16 -9 0 -18 9 -21 20 -9 32 -28 17 -31 -23 -5 -56 -32 -50 -32 7 l0 45 65
0 c37 0 65 -5 65 -10z m212 -26 c2 -21 8 -38 13 -38 6 0 11 17 13 38 2 24 8
37 18 37 10 0 14 -13 14 -45 l0 -45 -39 0 c-42 0 -51 11 -51 61 0 45 28 38 32
-8z m108 -248 c0 -20 5 -25 25 -25 32 0 48 -30 35 -64 -8 -22 -16 -26 -50 -26
l-40 0 0 70 c0 56 3 70 15 70 9 0 15 -9 15 -25z m-890 -15 c0 -25 4 -30 25
-30 21 0 25 5 25 30 0 20 5 30 15 30 12 0 15 -14 15 -65 0 -51 -3 -65 -15 -65
-10 0 -15 10 -15 30 0 25 -4 30 -25 30 -21 0 -25 -5 -25 -30 0 -20 -5 -30 -15
-30 -12 0 -15 14 -15 65 0 51 3 65 15 65 10 0 15 -10 15 -30z m390 20 c0 -5
-7 -10 -15 -10 -8 0 -15 5 -15 10 0 6 7 10 15 10 8 0 15 -4 15 -10z m370 -1
c0 -6 -9 -8 -21 -4 -26 9 -59 -20 -59 -51 0 -32 28 -57 56 -50 14 4 24 2 24
-4 0 -16 -67 -12 -84 6 -21 20 -20 73 1 96 17 19 83 25 83 7z m230 1 c0 -5 -4
-10 -10 -10 -5 0 -10 5 -10 10 0 6 5 10 10 10 6 0 10 -4 10 -10z m-1079 -10
c23 -13 26 -62 5 -79 -46 -38 -111 25 -71 69 20 22 37 25 66 10z m419 -5 c0
-10 10 -15 30 -15 29 0 30 -2 30 -45 l0 -45 -40 0 -40 0 0 40 c0 25 -5 40 -12
41 -10 0 -10 2 0 6 6 2 12 11 12 19 0 8 5 14 10 14 6 0 10 -7 10 -15z m-210
-49 c0 -38 17 -57 31 -35 5 8 9 26 9 42 0 15 5 27 10 27 6 0 10 -21 10 -46 l0
-45 -37 3 c-37 3 -38 4 -41 46 -2 25 1 42 7 42 6 0 11 -15 11 -34z m160 15
c15 -30 13 -71 -5 -71 -10 0 -15 10 -15 33 0 19 -3 37 -7 40 -12 13 -33 -15
-33 -44 0 -16 -4 -29 -10 -29 -5 0 -10 20 -10 45 0 45 0 45 35 45 24 0 37 -6
45 -19z m208 -28 c2 -34 0 -43 -12 -43 -12 0 -16 11 -16 41 0 52 -24 48 -28
-4 -2 -24 -8 -37 -18 -37 -10 0 -14 13 -14 46 l0 45 43 -3 c42 -3 42 -3 45
-45z m110 -9 c-3 -33 -11 -60 -19 -65 -19 -12 -69 -12 -69 0 0 6 12 9 26 8 36
-3 43 21 8 25 -37 4 -51 29 -36 62 10 22 18 26 53 26 l41 0 -4 -56z m250 8 l3
-43 -38 3 c-30 2 -39 7 -41 25 -3 17 3 24 22 29 14 3 26 11 26 16 0 6 -11 7
-26 4 -17 -5 -23 -3 -19 4 4 6 21 10 38 8 30 -3 32 -6 35 -46z m142 3 c0 -25
-4 -45 -10 -45 -5 0 -10 20 -10 45 0 25 5 45 10 45 6 0 10 -20 10 -45z m104
29 c12 -31 7 -74 -9 -74 -11 0 -15 11 -15 41 0 52 -24 48 -28 -4 -2 -24 -8
-37 -18 -37 -10 0 -14 13 -14 45 l0 45 39 0 c26 0 41 -5 45 -16z m-4415 -71
c16 -32 56 -89 90 -127 34 -38 61 -72 61 -75 -1 -3 -77 -85 -170 -181 l-170
-175 -59 65 c-57 62 -59 66 -43 85 15 18 15 18 1 7 -14 -11 -21 -7 -46 25 -40
51 -98 149 -122 205 l-19 46 216 90 c119 49 220 90 224 91 4 1 21 -25 37 -56z
m-549 -113 c-8 -5 -19 -10 -25 -10 -5 0 -3 5 5 10 8 5 20 10 25 10 6 0 3 -5
-5 -10z m-761 -17 c10 -17 10 -17 11 0 0 9 7 17 15 17 8 0 15 -5 15 -12 0 -9
3 -9 12 0 7 7 18 12 25 12 8 0 5 -8 -8 -21 l-21 -21 23 -24 c16 -18 19 -24 8
-24 -8 0 -20 5 -27 12 -9 9 -12 9 -12 0 0 -7 -7 -12 -15 -12 -8 0 -15 8 -15
17 0 15 -1 15 -13 -1 -28 -39 -74 3 -56 52 10 26 44 29 58 5z m226 -28 c0 -30
-4 -41 -18 -43 -29 -6 -49 18 -43 50 3 18 2 27 -4 23 -14 -9 -12 -69 2 -83 9
-9 8 -12 -4 -12 -18 0 -28 20 -28 55 0 45 9 54 53 52 42 -2 42 -2 42 -42z
m100 0 c0 -37 -2 -40 -30 -42 -30 -3 -30 -3 -5 8 l25 11 -22 9 c-22 8 -31 38
-16 53 4 4 16 6 28 4 16 -2 20 -10 20 -43z m62 34 c8 -8 13 -8 17 0 4 6 12 11
19 11 8 0 8 -3 -1 -12 -16 -16 -15 -28 2 -28 16 0 25 -19 19 -37 -6 -16 -35
-17 -51 -1 -9 9 -12 9 -12 0 0 -7 -8 -12 -17 -12 -13 0 -14 3 -5 12 16 16 15
28 -3 28 -15 0 -21 31 -8 43 10 10 28 8 40 -4z m88 -44 c0 -27 -4 -50 -10 -52
-6 -2 -10 20 -10 52 0 32 4 54 10 52 6 -2 10 -25 10 -52z m205 25 c-8 -5 -44
-9 -80 -8 l-65 2 70 6 c39 4 75 7 80 8 6 1 3 -3 -5 -8z m4230 -65 c0 -20 5
-25 24 -25 26 0 36 -16 36 -61 0 -19 -5 -29 -15 -29 -11 0 -15 11 -15 41 0 52
-24 48 -28 -4 -2 -24 -8 -37 -18 -37 -11 0 -14 16 -14 70 0 56 3 70 15 70 9 0
15 -9 15 -25z m320 -45 l0 -70 -39 0 c-49 0 -68 21 -55 58 7 19 18 28 37 30
21 3 27 9 27 28 0 15 6 24 15 24 12 0 15 -14 15 -70z m-4972 48 c-2 -6 -10
-14 -16 -16 -7 -2 -10 2 -6 12 7 18 28 22 22 4z m4437 6 c25 -10 36 -49 24
-81 -12 -33 -26 -43 -61 -43 -36 0 -58 24 -58 65 0 53 42 79 95 59z m175 -45
c0 -5 -10 -8 -22 -6 -19 2 -23 -3 -23 -28 0 -25 4 -30 23 -28 12 2 22 -2 22
-7 0 -6 -13 -10 -30 -10 -33 0 -55 29 -45 60 4 14 2 20 -8 20 -17 0 -27 -21
-27 -56 0 -13 -4 -24 -10 -24 -5 0 -10 20 -10 44 l0 45 65 -1 c36 0 65 -4 65
-9z m188 -37 l3 -43 -38 3 c-30 2 -39 7 -41 25 -3 17 3 24 22 29 14 3 26 11
26 16 0 6 -11 7 -26 4 -17 -5 -23 -3 -19 4 4 6 21 10 38 8 30 -3 32 -6 35 -46z
m60 37 c-12 -6 -18 -22 -18 -44 0 -24 -5 -35 -15 -35 -11 0 -15 12 -15 45 0
44 1 45 33 45 26 -1 29 -2 15 -11z m-4263 -65 c-53 -41 -96 -55 -158 -51 l-62
3 65 2 c52 2 75 8 115 32 55 32 71 38 40 14z m-828 -30 c3 -8 -4 -25 -17 -39
l-22 -23 24 -5 c18 -3 16 -5 -9 -6 -38 -1 -45 22 -12 39 23 13 20 36 -5 32 -9
-2 -16 2 -16 8 0 16 50 12 57 -6z m43 4 c0 -9 3 -9 12 0 7 7 18 12 25 12 8 0
5 -8 -8 -21 l-21 -21 23 -24 c16 -18 19 -24 8 -24 -8 0 -20 5 -27 12 -9 9 -12
9 -12 0 0 -7 -7 -12 -15 -12 -11 0 -15 12 -15 45 0 33 4 45 15 45 8 0 15 -5
15 -12z m122 0 c-16 -16 -16 -70 0 -86 9 -9 8 -12 -4 -12 -18 0 -28 20 -28 55
0 35 10 55 28 55 12 0 13 -3 4 -12z m58 -18 c0 -16 5 -30 11 -30 6 0 3 -8 -7
-17 -13 -13 -19 -14 -22 -5 -2 6 -12 12 -23 12 -24 0 -24 4 3 40 28 38 38 38
38 0z m112 -4 c2 -19 2 -39 0 -45 -4 -13 -32 -15 -32 -2 0 5 -9 11 -20 13 -19
3 -19 3 1 36 27 41 46 41 51 -2z m68 22 c0 -9 3 -9 12 0 18 18 48 15 48 -5 1
-17 1 -17 11 0 14 24 33 23 20 -2 -9 -15 -7 -20 9 -24 24 -6 26 -35 4 -44 -9
-3 -25 -1 -35 5 -13 9 -19 8 -22 -1 -2 -7 -8 -9 -12 -5 -4 4 -3 14 4 22 9 11
7 15 -8 19 -13 3 -22 -3 -30 -19 -8 -18 -18 -24 -38 -23 -24 2 -25 2 -5 6 27
5 29 19 2 26 -19 5 -27 36 -13 50 11 12 53 8 53 -5z m151 -15 c6 -15 6 -36 1
-51 -15 -45 -27 -34 -27 23 0 60 10 70 26 28z m-293 -65 c-2 -6 -10 -14 -16
-16 -7 -2 -10 2 -6 12 7 18 28 22 22 4z m4386 -94 c34 -13 12 -74 -26 -74 -13
0 -18 -8 -18 -25 0 -16 -6 -25 -15 -25 -12 0 -15 14 -15 65 l0 65 29 0 c16 0
36 -3 45 -6z m-3684 -49 l-44 -45 -71 2 -70 2 71 3 c67 4 73 6 109 43 22 22
41 40 44 40 3 0 -15 -20 -39 -45z m3558 33 c22 -22 14 -67 -14 -80 -45 -21
-87 21 -66 66 13 28 58 36 80 14z m342 -3 c0 -10 10 -15 29 -15 27 0 30 -3 33
-37 2 -21 8 -38 13 -38 6 0 11 17 13 38 2 24 8 37 18 37 10 0 14 -13 14 -45
l0 -45 -39 0 c-41 0 -51 11 -51 56 0 15 -6 24 -15 24 -22 0 -20 -56 3 -69 14
-9 13 -10 -10 -11 -26 0 -28 3 -28 38 0 36 -2 39 -30 39 -36 0 -38 -9 -8 -29
30 -20 18 -48 -22 -48 -16 0 -30 5 -30 11 0 6 8 8 19 4 30 -9 35 14 6 27 -40
18 -28 42 23 46 28 2 42 8 42 18 0 8 5 14 10 14 6 0 10 -7 10 -15z m-122 -63
l3 -43 -38 3 c-51 4 -58 33 -12 52 31 13 26 32 -5 20 -9 -3 -16 -1 -16 6 0 7
13 10 33 8 30 -3 32 -6 35 -46z m330 36 c23 -23 13 -38 -24 -38 -32 0 -35 -2
-24 -15 7 -9 21 -13 31 -10 11 4 19 2 19 -4 0 -15 -53 -14 -68 1 -7 7 -12 21
-12 33 0 12 5 26 12 33 7 7 21 12 33 12 12 0 26 -5 33 -12z m70 5 c-12 -3 -20
-18 -24 -44 -9 -53 -24 -49 -24 6 0 44 0 45 33 44 17 -1 24 -3 15 -6z m-4968
-58 c0 -33 -4 -45 -15 -45 -10 0 -15 11 -15 35 0 21 -5 35 -12 35 -9 0 -8 4 2
10 30 20 40 11 40 -35z m40 28 c1 -17 1 -17 14 0 7 9 19 17 26 17 9 0 8 -5 -3
-18 -21 -23 -21 -36 -2 -52 9 -7 13 -15 10 -18 -3 -3 -14 3 -25 13 -18 16 -20
16 -20 2 0 -10 -4 -17 -10 -17 -5 0 -10 20 -10 45 0 25 5 45 10 45 6 0 10 -8
10 -17z m194 2 c3 -9 -6 -25 -22 -40 l-27 -25 30 -1 c17 -1 35 0 40 2 6 1 20
2 33 2 26 -1 31 26 5 28 -17 1 -17 2 0 6 9 2 17 11 17 20 0 9 -6 13 -15 9 -8
-3 -15 -1 -15 4 0 6 12 10 26 10 23 0 26 -3 22 -25 -3 -14 -1 -28 4 -31 16
-10 -14 -34 -42 -34 -16 0 -31 -6 -34 -12 -5 -10 -7 -10 -12 0 -3 6 -21 12
-40 12 -39 0 -43 9 -14 35 28 25 25 43 -6 41 -24 -1 -25 -4 -22 -49 3 -51 -11
-59 -26 -14 -16 44 4 73 52 75 27 1 42 -3 46 -13z m174 3 c9 -9 12 -9 12 0 0
16 32 16 48 0 9 -9 12 -9 12 0 0 7 7 12 17 12 14 0 14 -2 -2 -20 -18 -19 -17
-20 3 -20 15 0 22 -6 22 -20 0 -25 -25 -37 -44 -21 -10 8 -16 9 -21 1 -12 -19
-26 -11 -15 10 8 16 8 20 -4 20 -8 0 -16 5 -18 12 -3 7 -10 8 -17 4 -10 -7
-11 -10 -1 -16 20 -13 3 -40 -25 -40 -14 0 -25 4 -25 10 0 5 6 7 14 4 8 -3 17
-1 21 5 3 6 -4 15 -17 20 -17 7 -19 10 -5 10 9 1 17 8 17 16 0 9 -6 12 -15 9
-8 -4 -15 -1 -15 5 0 15 43 14 58 -1z m146 -4 c15 -38 3 -94 -20 -94 -11 0
-11 5 -2 26 9 19 9 33 1 55 -9 23 -8 29 2 29 7 0 16 -7 19 -16z m1545 -437
l66 -3 -71 -2 -71 -2 -7 38 c-9 57 -5 73 6 20 l10 -47 67 -4z m169 10 c2 -11
-6 -26 -20 -35 l-23 -17 30 -6 c29 -6 29 -7 -7 -8 -43 -1 -47 8 -18 34 27 25
27 48 -1 40 -15 -5 -19 -4 -14 5 10 17 49 8 53 -13z m82 14 c0 -6 -4 -12 -9
-16 -5 -3 -12 -19 -16 -35 -4 -17 -13 -30 -21 -30 -12 0 -12 5 1 36 19 45 19
42 -7 47 -14 3 -9 5 15 6 20 0 37 -3 37 -8z m30 -8 c1 -17 1 -17 11 0 5 9 17
17 26 17 14 0 13 -4 -5 -23 l-22 -23 22 -22 c15 -14 18 -22 9 -22 -8 0 -20 8
-27 18 -13 16 -13 16 -14 0 0 -10 -4 -18 -10 -18 -5 0 -10 20 -10 45 0 25 5
45 10 45 6 0 10 -8 10 -17z m119 -10 c-6 -18 -6 -36 0 -55 8 -22 8 -29 -2 -25
-21 7 -32 54 -19 82 16 34 35 33 21 -2z m59 20 c-23 -6 -23 -11 4 -33 19 -15
20 -20 9 -34 -15 -18 -61 -22 -61 -5 0 6 9 8 20 4 16 -5 20 -2 20 14 0 12 -7
21 -15 21 -8 0 -15 9 -15 20 0 15 6 20 28 19 16 -1 20 -3 10 -6z m88 -20 c9
-33 -6 -57 -37 -60 -15 -1 -17 0 -6 3 23 7 22 20 -3 27 -11 3 -20 14 -20 24 0
26 8 33 36 33 17 0 25 -7 30 -27z m102 -6 c4 -34 -13 -57 -42 -56 -19 0 -19 1
4 11 24 11 24 12 3 15 -44 8 -34 67 11 61 15 -2 22 -12 24 -31z m52 21 c-24
-11 -24 -12 -3 -15 44 -8 34 -67 -11 -61 -15 2 -22 12 -24 31 -4 34 13 57 42
56 19 0 19 -1 -4 -11z m78 0 c9 -9 12 -9 12 0 0 7 7 12 17 12 14 0 14 -2 -2
-20 -18 -19 -17 -20 3 -20 15 0 22 -6 22 -20 0 -25 -25 -37 -44 -21 -10 8 -16
9 -21 1 -12 -19 -26 -11 -15 10 8 16 8 20 -4 20 -16 0 -25 19 -18 38 5 15 34
16 50 0z m86 -4 c15 -38 3 -94 -20 -94 -11 0 -11 5 -2 26 9 19 9 33 1 55 -9
23 -8 29 2 29 7 0 16 -7 19 -16z m-290 -79 c-6 -16 -24 -21 -24 -7 0 11 11 22
21 22 5 0 6 -7 3 -15z"/>
<path d="M1477 7253 c-13 -13 -7 -53 8 -53 10 0 15 10 15 30 0 29 -9 38 -23
23z"/>
<path d="M640 7230 c0 -19 5 -30 14 -30 20 0 29 16 21 40 -10 32 -35 25 -35
-10z"/>
<path d="M800 7212 c0 -14 11 -21 26 -15 21 8 17 23 -6 23 -11 0 -20 -4 -20
-8z"/>
<path d="M1120 7250 c0 -5 7 -10 15 -10 8 0 15 5 15 10 0 6 -7 10 -15 10 -8 0
-15 -4 -15 -10z"/>
<path d="M1714 7245 c-9 -21 3 -45 21 -45 10 0 15 10 15 30 0 32 -26 43 -36
15z"/>
<path d="M1866 7211 c-3 -5 0 -11 8 -14 15 -6 26 1 26 15 0 11 -27 10 -34 -1z"/>
<path d="M2060 7250 c0 -5 7 -10 15 -10 8 0 15 5 15 10 0 6 -7 10 -15 10 -8 0
-15 -4 -15 -10z"/>
<path d="M3610 6795 c0 -19 5 -35 10 -35 6 0 10 16 10 35 0 19 -4 35 -10 35
-5 0 -10 -16 -10 -35z"/>
<path d="M3751 6814 c0 -11 3 -14 6 -6 3 7 2 16 -1 19 -3 4 -6 -2 -5 -13z"/>
<path d="M5680 6335 c0 -14 5 -25 10 -25 6 0 10 11 10 25 0 14 -4 25 -10 25
-5 0 -10 -11 -10 -25z"/>
<path d="M5784 6346 c-4 -10 -2 -22 4 -28 8 -8 13 -7 18 6 4 10 2 22 -4 28 -8
8 -13 7 -18 -6z"/>
<path d="M6480 6380 c0 -13 5 -20 13 -17 6 2 12 10 12 17 0 7 -6 15 -12 18 -8
2 -13 -5 -13 -18z"/>
<path d="M5500 6380 c0 -13 5 -20 13 -17 6 2 12 10 12 17 0 7 -6 15 -12 18 -8
2 -13 -5 -13 -18z"/>
<path d="M6100 6335 c0 -14 5 -25 10 -25 6 0 10 11 10 25 0 14 -4 25 -10 25
-5 0 -10 -11 -10 -25z"/>
<path d="M6214 6346 c-4 -10 -2 -22 4 -28 8 -8 13 -7 18 6 4 10 2 22 -4 28 -8
8 -13 7 -18 -6z"/>
<path d="M6736 6343 c-4 -9 -3 -20 2 -25 12 -12 42 1 42 17 0 7 -7 16 -16 19
-21 8 -21 8 -28 -11z"/>
<path d="M6824 6323 c3 -4 27 -8 52 -9 29 -1 41 2 33 7 -16 10 -96 12 -85 2z"/>
<path d="M1005 6210 c-3 -5 -1 -10 4 -10 6 0 11 5 11 10 0 6 -2 10 -4 10 -3 0
-8 -4 -11 -10z"/>
<path d="M1304 6237 c-7 -20 -2 -47 11 -50 14 -3 19 43 6 56 -7 7 -12 6 -17
-6z"/>
<path d="M1480 6230 c0 -11 5 -20 10 -20 6 0 10 9 10 20 0 11 -4 20 -10 20 -5
0 -10 -9 -10 -20z"/>
<path d="M1545 6241 c-3 -5 -1 -12 5 -16 5 -3 10 1 10 9 0 18 -6 21 -15 7z"/>
<path d="M1601 6194 c0 -11 3 -14 6 -6 3 7 2 16 -1 19 -3 4 -6 -2 -5 -13z"/>
<path d="M6346 6072 c-8 -24 3 -54 18 -49 15 5 14 59 -1 64 -6 2 -14 -5 -17
-15z"/>
<path d="M5820 6074 c-10 -11 -11 -20 -3 -32 17 -27 38 -20 38 12 0 34 -16 44
-35 20z"/>
<path d="M5930 6075 c-12 -14 -5 -55 9 -55 17 0 32 30 26 50 -8 24 -18 25 -35
5z"/>
<path d="M6210 6075 c-10 -13 -9 -15 9 -15 11 0 21 4 21 9 0 18 -18 21 -30 6z"/>
<path d="M6260 5755 c0 -62 17 -74 46 -30 23 35 4 84 -33 85 -9 0 -13 -18 -13
-55z"/>
<path d="M6100 5749 c-11 -20 1 -49 21 -49 12 0 20 35 13 54 -8 22 -21 20 -34
-5z"/>
<path d="M6380 5754 c-10 -11 -11 -20 -3 -32 17 -27 38 -20 38 12 0 34 -16 44
-35 20z"/>
<path d="M5770 5420 c-12 -7 -12 -12 -3 -21 10 -10 14 -9 19 5 8 22 2 27 -16
16z"/>
<path d="M6027 5453 c-12 -11 -8 -23 8 -23 8 0 15 7 15 15 0 16 -12 20 -23 8z"/>
<path d="M6544 5136 c-9 -23 0 -51 16 -51 10 0 15 10 15 29 0 32 -21 47 -31
22z"/>
<path d="M5982 5118 c4 -46 28 -49 28 -4 0 26 -4 36 -16 36 -11 0 -14 -8 -12
-32z"/>
<path d="M6184 5136 c-9 -23 0 -51 16 -51 10 0 15 10 15 29 0 32 -21 47 -31
22z"/>
<path d="M6450 5110 c-12 -7 -12 -12 -3 -21 10 -10 14 -9 19 5 8 22 2 27 -16
16z"/>
<path d="M2369 4933 c-13 -16 -12 -17 4 -4 9 7 17 15 17 17 0 8 -8 3 -21 -13z"/>
<path d="M2179 4783 c-13 -16 -12 -17 4 -4 9 7 17 15 17 17 0 8 -8 3 -21 -13z"/>
<path d="M2129 4743 c-13 -16 -12 -17 4 -4 9 7 17 15 17 17 0 8 -8 3 -21 -13z"/>
<path d="M2079 4703 c-13 -16 -12 -17 4 -4 9 7 17 15 17 17 0 8 -8 3 -21 -13z"/>
<path d="M980 4915 c0 -19 5 -35 10 -35 6 0 10 16 10 35 0 19 -4 35 -10 35 -5
0 -10 -16 -10 -35z"/>
<path d="M1210 4915 c0 -22 4 -34 10 -30 6 3 10 17 10 30 0 13 -4 27 -10 30
-6 4 -10 -8 -10 -30z"/>
<path d="M1310 4930 c0 -11 5 -20 10 -20 6 0 10 9 10 20 0 11 -4 20 -10 20 -5
0 -10 -9 -10 -20z"/>
<path d="M1381 4934 c0 -11 3 -14 6 -6 3 7 2 16 -1 19 -3 4 -6 -2 -5 -13z"/>
<path d="M1430 4894 c0 -8 5 -12 10 -9 6 4 8 11 5 16 -9 14 -15 11 -15 -7z"/>
<path d="M6184 4816 c-9 -23 0 -51 16 -51 10 0 15 10 15 29 0 32 -21 47 -31
22z"/>
<path d="M5656 4854 c-32 -31 -7 -100 33 -92 24 5 37 52 23 83 -13 29 -33 32
-56 9z"/>
<path d="M6030 4790 c-12 -7 -12 -12 -3 -21 10 -10 14 -9 19 5 8 22 2 27 -16
16z"/>
<path d="M1415 4730 c-4 -6 -3 -16 3 -22 13 -13 23 4 13 21 -7 10 -10 10 -16
1z"/>
<path d="M1481 4724 c0 -11 3 -14 6 -6 3 7 2 16 -1 19 -3 4 -6 -2 -5 -13z"/>
<path d="M5650 4530 c0 -32 11 -38 29 -16 14 16 4 46 -15 46 -9 0 -14 -11 -14
-30z"/>
<path d="M5743 4475 c-8 -22 6 -33 17 -15 13 20 12 30 0 30 -6 0 -13 -7 -17
-15z"/>
<path d="M6070 4505 c-10 -13 -9 -15 9 -15 11 0 21 4 21 9 0 18 -18 21 -30 6z"/>
<path d="M1655 4491 c-3 -5 -1 -12 5 -16 5 -3 10 1 10 9 0 18 -6 21 -15 7z"/>
<path d="M1711 4444 c0 -11 3 -14 6 -6 3 7 2 16 -1 19 -3 4 -6 -2 -5 -13z"/>
<path d="M3825 4070 c-4 -6 -3 -16 3 -22 6 -6 12 -6 17 2 4 6 3 16 -3 22 -6 6
-12 6 -17 -2z"/>
<path d="M3930 4061 c0 -12 5 -21 10 -21 6 0 10 6 10 14 0 8 -4 18 -10 21 -5
3 -10 -3 -10 -14z"/>
<path d="M4000 4036 c0 -8 5 -18 10 -21 6 -3 10 3 10 14 0 12 -4 21 -10 21 -5
0 -10 -6 -10 -14z"/>
<path d="M4065 4071 c-3 -5 -1 -12 5 -16 5 -3 10 1 10 9 0 18 -6 21 -15 7z"/>
<path d="M4121 4024 c0 -11 3 -14 6 -6 3 7 2 16 -1 19 -3 4 -6 -2 -5 -13z"/>
<path d="M6438 7293 c23 -2 59 -2 80 0 20 2 1 4 -43 4 -44 0 -61 -2 -37 -4z"/>
<path d="M6703 7283 c9 -2 25 -2 35 0 9 3 1 5 -18 5 -19 0 -27 -2 -17 -5z"/>
<path d="M6788 7283 c6 -2 18 -2 25 0 6 3 1 5 -13 5 -14 0 -19 -2 -12 -5z"/>
<path d="M6703 7213 c9 -2 25 -2 35 0 9 3 1 5 -18 5 -19 0 -27 -2 -17 -5z"/>
<path d="M6717 7173 c18 -2 50 -2 70 0 21 2 7 4 -32 4 -38 0 -55 -2 -38 -4z"/>
<path d="M6468 7163 c7 -3 16 -2 19 1 4 3 -2 6 -13 5 -11 0 -14 -3 -6 -6z"/>
<path d="M7790 7230 c0 -20 5 -30 15 -30 10 0 15 10 15 30 0 20 -5 30 -15 30
-10 0 -15 -10 -15 -30z"/>
<path d="M8220 7230 c0 -25 4 -31 18 -28 11 2 17 12 17 28 0 16 -6 26 -17 28
-14 3 -18 -3 -18 -28z"/>
<path d="M8887 7253 c-13 -12 -7 -53 7 -53 20 0 29 16 21 40 -6 20 -17 25 -28
13z"/>
<path d="M7584 7246 c-9 -22 2 -46 21 -46 12 0 15 8 13 27 -3 30 -25 42 -34
19z"/>
<path d="M7690 7230 c0 -19 5 -30 14 -30 20 0 29 16 21 40 -10 32 -35 25 -35
-10z"/>
<path d="M7947 7254 c-4 -4 -7 -18 -7 -31 0 -18 5 -24 18 -21 10 2 17 12 17
27 0 24 -15 37 -28 25z"/>
<path d="M8120 7230 c0 -19 5 -30 14 -30 20 0 29 16 21 40 -10 32 -35 25 -35
-10z"/>
<path d="M8624 7246 c-9 -22 2 -46 21 -46 12 0 15 8 13 27 -3 30 -25 42 -34
19z"/>
<path d="M9180 7230 c0 -19 5 -30 14 -30 20 0 29 16 21 40 -10 32 -35 25 -35
-10z"/>
<path d="M9367 7214 c-4 -4 -4 -10 -1 -15 6 -10 34 0 34 12 0 10 -24 12 -33 3z"/>
<path d="M9737 7254 c-4 -4 -7 -18 -7 -31 0 -18 5 -24 18 -21 10 2 17 12 17
27 0 24 -15 37 -28 25z"/>
<path d="M9835 7250 c-3 -5 3 -10 15 -10 12 0 18 5 15 10 -3 6 -10 10 -15 10
-5 0 -12 -4 -15 -10z"/>
<path d="M7709 6899 c-8 -16 -8 -28 0 -46 15 -32 31 -20 31 22 0 41 -15 53
-31 24z"/>
<path d="M8770 5225 l0 -325 100 0 100 0 0 325 0 325 -100 0 -100 0 0 -325z"/>
<path d="M7709 6229 c-8 -16 -8 -28 0 -46 15 -32 31 -20 31 22 0 41 -15 53
-31 24z"/>
<path d="M7709 5559 c-8 -16 -8 -28 0 -46 15 -32 31 -20 31 22 0 41 -15 53
-31 24z"/>
<path d="M7709 4889 c-8 -16 -8 -28 0 -46 15 -32 31 -20 31 22 0 41 -15 53
-31 24z"/>
<path d="M12320 4732 c0 -24 14 -42 32 -42 29 0 20 44 -9 48 -13 2 -23 -1 -23
-6z"/>
<path d="M13302 4718 c2 -15 11 -24 26 -26 20 -3 23 0 20 20 -2 15 -11 24 -26
26 -20 3 -23 0 -20 -20z"/>
<path d="M9355 4699 c-4 -6 -5 -13 -2 -16 7 -7 27 6 27 18 0 12 -17 12 -25 -2z"/>
<path d="M8314 4635 c-9 -21 3 -45 21 -45 21 0 30 27 15 45 -16 19 -29 19 -36
0z"/>
<path d="M10284 4649 c-9 -16 21 -43 41 -36 13 5 14 11 5 27 -12 22 -35 26
-46 9z"/>
<path d="M12240 4644 c0 -14 3 -14 15 -4 8 7 15 14 15 16 0 2 -7 4 -15 4 -8 0
-15 -7 -15 -16z"/>
<path d="M13235 4620 c-4 -6 -3 -16 3 -22 6 -6 12 -6 17 2 4 6 3 16 -3 22 -6
6 -12 6 -17 -2z"/>
<path d="M10257 4574 c-4 -4 -7 -14 -7 -23 0 -11 3 -12 11 -4 6 6 10 16 7 23
-2 6 -7 8 -11 4z"/>
<path d="M8220 4585 c-11 -13 -8 -21 15 -45 22 -23 32 -27 42 -19 18 16 16 43
-5 62 -23 21 -36 21 -52 2z"/>
<path d="M9197 4494 c-4 -4 -7 -14 -7 -23 0 -11 3 -12 11 -4 6 6 10 16 7 23
-2 6 -7 8 -11 4z"/>
<path d="M12080 4482 c0 -28 27 -49 43 -33 8 8 9 16 1 29 -16 25 -44 28 -44 4z"/>
<path d="M8144 4465 c-9 -24 22 -53 38 -37 9 9 10 17 2 29 -15 24 -33 27 -40
8z"/>
<path d="M9095 4480 c-10 -16 16 -43 28 -31 11 11 2 41 -12 41 -5 0 -13 -5
-16 -10z"/>
<path d="M11075 4459 c-11 -17 1 -21 15 -4 8 9 8 15 2 15 -6 0 -14 -5 -17 -11z"/>
<path d="M12980 4455 c-18 -22 -4 -64 25 -71 13 -3 29 -3 34 1 17 10 13 50 -7
68 -23 21 -36 21 -52 2z"/>
<path d="M10074 4435 c-8 -21 3 -45 20 -45 19 0 28 14 20 33 -8 22 -34 29 -40
12z"/>
<path d="M12022 4428 c-14 -14 2 -48 24 -48 20 0 29 27 14 45 -15 18 -22 19
-38 3z"/>
<path d="M10950 4279 c0 -11 5 -17 10 -14 6 3 10 13 10 21 0 8 -4 14 -10 14
-5 0 -10 -9 -10 -21z"/>
<path d="M1010 3386 c0 -21 5 -26 26 -26 21 0 25 4 22 23 -2 14 -11 23 -25 25
-19 3 -23 -1 -23 -22z"/>
<path d="M1300 3340 c0 -25 4 -31 18 -28 11 2 17 12 17 28 0 16 -6 26 -17 28
-14 3 -18 -3 -18 -28z"/>
<path d="M647 3364 c-4 -4 -7 -18 -7 -31 0 -18 5 -24 18 -21 10 2 17 12 17 27
0 24 -15 37 -28 25z"/>
<path d="M800 3322 c0 -14 11 -21 26 -15 21 8 17 23 -6 23 -11 0 -20 -4 -20
-8z"/>
<path d="M1200 3340 c0 -19 5 -30 14 -30 20 0 29 16 21 40 -10 32 -35 25 -35
-10z"/>
<path d="M1704 3356 c-9 -22 2 -46 21 -46 12 0 15 8 13 27 -3 30 -25 42 -34
19z"/>
<path d="M9240 3322 c0 -14 11 -21 26 -15 21 8 17 23 -6 23 -11 0 -20 -4 -20
-8z"/>
<path d="M9410 3360 c0 -5 7 -10 15 -10 8 0 15 5 15 10 0 6 -7 10 -15 10 -8 0
-15 -4 -15 -10z"/>
<path d="M9640 3321 c0 -18 18 -21 30 -6 10 13 9 15 -9 15 -11 0 -21 -4 -21
-9z"/>
<path d="M10092 3319 c2 -6 8 -10 13 -10 5 0 11 4 13 10 2 6 -4 11 -13 11 -9
0 -15 -5 -13 -11z"/>
<path d="M10440 3340 c0 -19 5 -30 14 -30 20 0 29 16 21 40 -10 32 -35 25 -35
-10z"/>
<path d="M10810 3340 c0 -19 5 -30 14 -30 20 0 29 16 21 40 -10 32 -35 25 -35
-10z"/>
<path d="M11085 3360 c-3 -5 3 -10 15 -10 12 0 18 5 15 10 -3 6 -10 10 -15 10
-5 0 -12 -4 -15 -10z"/>
<path d="M9564 3117 c-7 -20 -2 -47 11 -50 14 -3 19 43 6 56 -7 7 -12 6 -17
-6z"/>
<path d="M9634 3117 c-7 -20 -2 -47 11 -50 14 -3 19 43 6 56 -7 7 -12 6 -17
-6z"/>
<path d="M560 3054 c0 -8 5 -12 10 -9 6 3 10 10 10 16 0 5 -4 9 -10 9 -5 0
-10 -7 -10 -16z"/>
<path d="M1675 3040 c-3 -5 1 -10 9 -10 9 0 16 5 16 10 0 6 -4 10 -9 10 -6 0
-13 -4 -16 -10z"/>
<path d="M1797 3043 c-4 -3 -7 -17 -7 -30 0 -33 24 -24 28 10 3 26 -7 35 -21
20z"/>
<path d="M2590 3035 c0 -46 13 -58 38 -33 25 25 8 78 -25 78 -9 0 -13 -15 -13
-45z"/>
<path d="M3310 3020 c0 -16 5 -30 10 -30 6 0 10 14 10 30 0 17 -4 30 -10 30
-5 0 -10 -13 -10 -30z"/>
<path d="M3225 3011 c-6 -11 9 -23 19 -14 9 9 7 23 -3 23 -6 0 -12 -4 -16 -9z"/>
<path d="M4864 3035 c-8 -19 2 -45 16 -45 5 0 10 14 10 30 0 31 -16 41 -26 15z"/>
<path d="M5283 3073 c-19 -7 -16 -72 2 -79 35 -14 61 46 33 74 -13 13 -16 13
-35 5z"/>
<path d="M5714 3036 c-8 -22 3 -49 19 -43 6 2 12 14 12 27 0 27 -22 39 -31 16z"/>
<path d="M6010 3055 c0 -17 5 -25 13 -22 6 2 12 12 12 22 0 10 -6 20 -12 23
-8 2 -13 -6 -13 -23z"/>
<path d="M6230 3020 c0 -16 5 -30 10 -30 6 0 10 14 10 30 0 17 -4 30 -10 30
-5 0 -10 -13 -10 -30z"/>
<path d="M840 3012 c0 -4 19 -9 42 -9 30 -2 38 1 28 7 -18 12 -70 13 -70 2z"/>
<path d="M1354 3036 c-8 -22 3 -49 19 -43 6 2 12 14 12 27 0 27 -22 39 -31 16z"/>
<path d="M1444 3035 c-8 -19 2 -45 16 -45 5 0 10 14 10 30 0 31 -16 41 -26 15z"/>
<path d="M2457 3035 c-8 -20 3 -47 17 -42 6 2 11 14 11 27 0 27 -20 38 -28 15z"/>
<path d="M2694 3036 c-8 -22 3 -49 19 -43 6 2 12 14 12 27 0 27 -22 39 -31 16z"/>
<path d="M3435 3040 c-3 -5 3 -10 15 -10 12 0 18 5 15 10 -3 6 -10 10 -15 10
-5 0 -12 -4 -15 -10z"/>
<path d="M4567 3043 c-4 -3 -7 -17 -7 -30 0 -33 24 -24 28 10 3 26 -7 35 -21
20z"/>
<path d="M4786 3011 c-4 -7 -5 -15 -2 -18 9 -9 19 4 14 18 -4 11 -6 11 -12 0z"/>
<path d="M5585 3011 c-6 -11 9 -23 19 -14 9 9 7 23 -3 23 -6 0 -12 -4 -16 -9z"/>
<path d="M6085 3009 c-4 -6 -5 -13 -2 -16 7 -7 27 6 27 18 0 12 -17 12 -25 -2z"/>
<path d="M6355 3040 c-3 -5 3 -10 15 -10 12 0 18 5 15 10 -3 6 -10 10 -15 10
-5 0 -12 -4 -15 -10z"/>
<path d="M850 2725 c0 -19 4 -35 9 -35 12 0 19 29 13 53 -7 30 -22 18 -22 -18z"/>
<path d="M9634 2187 c-7 -20 -2 -47 11 -50 14 -3 19 43 6 56 -7 7 -12 6 -17
-6z"/>
<path d="M850 2015 c0 -19 4 -35 9 -35 12 0 19 29 13 53 -7 30 -22 18 -22 -18z"/>
<path d="M2590 1695 c-10 -12 -10 -15 4 -15 9 0 16 7 16 15 0 8 -2 15 -4 15
-2 0 -9 -7 -16 -15z"/>
<path d="M850 1305 c0 -19 4 -35 9 -35 12 0 19 29 13 53 -7 30 -22 18 -22 -18z"/>
<path d="M9634 1247 c-7 -20 -2 -47 11 -50 14 -3 19 43 6 56 -7 7 -12 6 -17
-6z"/>
<path d="M10090 1111 c0 -12 29 -35 36 -28 11 10 -5 37 -21 37 -8 0 -15 -4
-15 -9z"/>
<path d="M13295 1080 c-3 -5 -1 -10 4 -10 6 0 11 5 11 10 0 6 -2 10 -4 10 -3
0 -8 -4 -11 -10z"/>
<path d="M11130 1089 c0 -5 5 -7 10 -4 6 3 10 8 10 11 0 2 -4 4 -10 4 -5 0
-10 -5 -10 -11z"/>
<path d="M11635 1070 c-4 -7 -1 -19 8 -27 19 -19 29 -3 12 20 -9 13 -15 15
-20 7z"/>
<path d="M12730 1089 c0 -5 5 -7 10 -4 6 3 10 8 10 11 0 2 -4 4 -10 4 -5 0
-10 -5 -10 -11z"/>
<path d="M12190 1049 c0 -5 5 -7 10 -4 6 3 10 8 10 11 0 2 -4 4 -10 4 -5 0
-10 -5 -10 -11z"/>
<path d="M9932 1038 c-7 -7 -12 -18 -12 -25 0 -11 5 -11 20 -3 11 6 20 17 20
25 0 18 -12 19 -28 3z"/>
<path d="M13182 1024 c2 -11 11 -20 22 -22 13 -3 17 1 14 14 -2 11 -11 20 -22
22 -13 3 -17 -1 -14 -14z"/>
<path d="M11030 1019 c0 -5 5 -7 10 -4 6 3 10 8 10 11 0 2 -4 4 -10 4 -5 0
-10 -5 -10 -11z"/>
<path d="M11970 926 c0 -18 16 -29 30 -21 13 8 1 35 -16 35 -8 0 -14 -6 -14
-14z"/>
<path d="M12561 934 c0 -11 3 -14 6 -6 3 7 2 16 -1 19 -3 4 -6 -2 -5 -13z"/>
<path d="M9842 923 c5 -25 28 -28 28 -4 0 12 -6 21 -16 21 -9 0 -14 -7 -12
-17z"/>
<path d="M10897 903 c-4 -3 -7 -11 -7 -17 0 -6 5 -5 12 2 6 6 9 14 7 17 -3 3
-9 2 -12 -2z"/>
<path d="M9772 884 c2 -11 11 -20 22 -22 13 -3 17 1 14 14 -2 11 -11 20 -22
22 -13 3 -17 -1 -14 -14z"/>
<path d="M11870 859 c0 -5 5 -7 10 -4 6 3 10 8 10 11 0 2 -4 4 -10 4 -5 0 -10
-5 -10 -11z"/>
<path d="M12387 823 c-4 -3 -7 -11 -7 -17 0 -6 5 -5 12 2 6 6 9 14 7 17 -3 3
-9 2 -12 -2z"/>
<path d="M4596 772 c-8 -24 3 -54 18 -49 15 5 14 59 -1 64 -6 2 -14 -5 -17
-15z"/>
<path d="M5124 776 c-9 -23 0 -51 16 -51 10 0 15 10 15 29 0 32 -21 47 -31 22z"/>
<path d="M5836 762 c-8 -24 3 -54 18 -49 15 5 14 59 -1 64 -6 2 -14 -5 -17
-15z"/>
<path d="M6554 766 c-8 -21 -1 -49 13 -53 13 -5 21 23 15 50 -5 21 -21 22 -28
3z"/>
<path d="M7266 762 c-8 -24 3 -54 18 -49 15 5 14 59 -1 64 -6 2 -14 -5 -17
-15z"/>
<path d="M8166 762 c-8 -24 3 -54 18 -49 15 5 14 59 -1 64 -6 2 -14 -5 -17
-15z"/>
<path d="M12141 710 c-19 -11 -9 -54 13 -58 25 -5 39 12 32 36 -8 24 -28 33
-45 22z"/>
<path d="M850 595 c0 -19 4 -35 9 -35 12 0 19 29 13 53 -7 30 -22 18 -22 -18z"/>
<path d="M9365 570 c-3 -5 -1 -10 4 -10 6 0 11 5 11 10 0 6 -2 10 -4 10 -3 0
-8 -4 -11 -10z"/>
<path d="M3680 485 c0 -8 5 -15 10 -15 6 0 10 7 10 15 0 8 -4 15 -10 15 -5 0
-10 -7 -10 -15z"/>
<path d="M3680 445 c0 -9 5 -15 11 -13 6 2 11 8 11 13 0 5 -5 11 -11 13 -6 2
-11 -4 -11 -13z"/>
<path d="M5047 493 c-13 -13 -7 -54 9 -60 24 -9 46 24 33 48 -10 19 -30 25
-42 12z"/>
<path d="M5800 485 c0 -9 5 -15 11 -13 6 2 11 8 11 13 0 5 -5 11 -11 13 -6 2
-11 -4 -11 -13z"/>
<path d="M5877 467 c-3 -8 -1 -20 4 -28 11 -19 34 3 26 25 -8 20 -23 21 -30 3z"/>
<path d="M5953 464 c-8 -22 15 -44 26 -25 10 16 4 41 -10 41 -5 0 -12 -7 -16
-16z"/>
<path d="M6480 485 c0 -9 5 -15 11 -13 6 2 11 8 11 13 0 5 -5 11 -11 13 -6 2
-11 -4 -11 -13z"/>
<path d="M6480 445 c0 -8 7 -15 15 -15 8 0 15 7 15 15 0 8 -7 15 -15 15 -8 0
-15 -7 -15 -15z"/>
<path d="M2463 464 c-8 -22 15 -44 26 -25 10 16 4 41 -10 41 -5 0 -12 -7 -16
-16z"/>
<path d="M2955 470 c-3 -5 1 -10 10 -10 9 0 13 5 10 10 -3 6 -8 10 -10 10 -2
0 -7 -4 -10 -10z"/>
<path d="M3190 455 c0 -17 5 -25 13 -22 6 2 12 12 12 22 0 10 -6 20 -12 23 -8
2 -13 -6 -13 -23z"/>
<path d="M3760 470 c0 -5 5 -10 10 -10 6 0 10 5 10 10 0 6 -4 10 -10 10 -5 0
-10 -4 -10 -10z"/>
<path d="M3825 440 c-3 -5 -2 -10 4 -10 5 0 13 5 16 10 3 6 2 10 -4 10 -5 0
-13 -4 -16 -10z"/>
<path d="M4435 470 c-3 -5 1 -10 10 -10 9 0 13 5 10 10 -3 6 -8 10 -10 10 -2
0 -7 -4 -10 -10z"/>
<path d="M5254 465 c-3 -8 -3 -19 1 -25 11 -18 25 -11 25 15 0 27 -17 34 -26
10z"/>
<path d="M6560 470 c0 -5 5 -10 10 -10 6 0 10 5 10 10 0 6 -4 10 -10 10 -5 0
-10 -4 -10 -10z"/>
<path d="M6755 470 c-3 -5 1 -10 10 -10 9 0 13 5 10 10 -3 6 -8 10 -10 10 -2
0 -7 -4 -10 -10z"/>
<path d="M7447 467 c-3 -8 -1 -20 4 -28 11 -19 34 3 26 25 -8 20 -23 21 -30 3z"/>
<path d="M7527 467 c-3 -8 -1 -20 4 -28 11 -19 34 3 26 25 -8 20 -23 21 -30 3z"/>
<path d="M8075 470 c-3 -5 1 -10 10 -10 9 0 13 5 10 10 -3 6 -8 10 -10 10 -2
0 -7 -4 -10 -10z"/>
</g>
</svg>
